<svg width="30" height="30" viewBox="0 0 30 30" fill="none" xmlns="http://www.w3.org/2000/svg">
<path d="M15.6546 25C15.2416 25 14.8285 25 14.4155 25C14.1546 24.9782 13.9155 24.9346 13.6546 24.9127C11.1765 24.5419 9.08956 23.4512 7.48091 21.5315C4.87229 18.3903 4.30709 14.8564 5.85052 11.0825C7.6983 6.58875 12.459 4.211 17.1763 5.23627C22.1761 6.32698 25.5891 11.1698 24.9152 16.2525C24.5891 18.652 23.5457 20.6808 21.7849 22.3387C20.3501 23.6693 18.6762 24.5201 16.7415 24.8473C16.3937 24.9127 16.0241 24.9564 15.6546 25ZM16.8502 19.7428C17.1763 19.4374 17.4806 19.1756 17.7415 18.8702C18.3284 18.2158 18.7415 17.4523 19.111 16.6451C19.1545 16.5579 19.198 16.4706 19.2632 16.4052C19.7414 15.9035 19.9588 15.2927 19.9153 14.6164C19.8936 14.1801 19.7197 14.0056 19.3284 13.9184C19.3284 13.8747 19.3501 13.8311 19.3501 13.7875C19.3936 13.1767 19.4806 12.5659 19.4806 11.9333C19.4588 10.4281 18.7849 9.27191 17.3937 8.61748C15.8285 7.8758 14.2199 7.89761 12.6329 8.6393C11.633 9.11921 10.9591 9.90453 10.6765 10.9952C10.5026 11.6933 10.5243 12.3914 10.6113 13.0894C10.633 13.373 10.6765 13.6566 10.7199 13.9402C10.3721 13.9838 10.1982 14.1365 10.1547 14.4637C10.0461 15.2054 10.2634 15.838 10.7634 16.4052C10.8069 16.4706 10.8721 16.5142 10.9156 16.6015C11.4591 17.8013 12.1112 18.9356 13.2199 19.7209C12.959 20.3317 12.6329 20.8989 12.133 21.3352C11.8069 21.6406 11.4373 21.8151 10.9808 21.8806C10.633 21.9242 10.2852 22.0114 9.93736 22.0987C9.93736 22.1205 9.93736 22.1423 9.93736 22.1641C11.4156 23.233 13.0894 23.7784 14.9155 23.8002C16.8285 23.822 18.5458 23.2767 20.0892 22.1423C19.8066 22.0551 19.524 21.9896 19.2632 21.946C18.7849 21.8587 18.3284 21.7497 17.9589 21.4225C17.4372 20.9207 17.0893 20.3317 16.8502 19.7428Z" fill="#45A6CC"/>
</svg>
