<svg width="16" height="19" viewBox="0 0 16 19" fill="none" xmlns="http://www.w3.org/2000/svg">
<path d="M14.2586 15.3816C14.2586 16.1134 14.2586 16.8317 14.2586 17.5635C14.3251 17.577 14.3783 17.577 14.4315 17.5906C14.7906 17.6312 15.0566 17.9429 15.0566 18.3088C15.0566 18.6883 14.764 18.9864 14.3916 19C14.3384 19 14.2852 19 14.2319 19C10.3481 19 6.46423 18.9864 2.56707 19C1.30349 19 0.332522 18.1462 0.0798051 17.0892C0.0266016 16.8588 0 16.6148 0 16.3709C0 11.7903 0 7.2097 0 2.61555C0 1.28745 0.824655 0.284593 2.10154 0.0406561C2.26115 0.013552 2.42076 0.0135519 2.58037 0.0135519C6.46423 0.0135519 10.3348 0.0135521 14.2186 0C14.7374 0 15.0566 0.32525 15.0566 0.85378C15.0433 5.39372 15.0566 9.94722 15.0566 14.4872C15.0566 15.0835 14.8305 15.3138 14.2586 15.3816ZM12.8354 17.577C12.8354 16.8181 12.8354 16.0999 12.8354 15.3545C12.7689 15.3545 12.7023 15.3545 12.6491 15.3545C9.29732 15.3545 5.9322 15.3545 2.58037 15.3545C2.54047 15.3545 2.48727 15.3545 2.44736 15.3545C1.75572 15.3952 1.27689 16.0321 1.4365 16.7233C1.5562 17.2382 1.99513 17.5635 2.59367 17.5635C5.9455 17.5635 9.29732 17.5635 12.6358 17.5635C12.7023 17.577 12.7689 17.577 12.8354 17.577ZM7.515 4.75678C8.64558 4.75678 9.78945 4.75678 10.92 4.75678C11.0397 4.75678 11.1727 4.72967 11.2925 4.67546C11.5718 4.53994 11.7314 4.21469 11.6649 3.91655C11.5851 3.56419 11.3191 3.34736 10.9466 3.34736C8.68548 3.34736 6.42433 3.34736 4.16318 3.34736C3.72425 3.34736 3.40503 3.64551 3.40503 4.05207C3.40503 4.47218 3.71095 4.75678 4.17648 4.75678C5.28045 4.75678 6.39773 4.75678 7.515 4.75678Z" fill="#FF9500"/>
</svg>
