<svg width="18" height="16" viewBox="0 0 18 16" fill="none" xmlns="http://www.w3.org/2000/svg">
<path d="M9 16C6.66977 16 4.33954 16 2.0093 16C0.823256 16 0 15.1465 0 13.9313C0 9.98192 0 6.03255 0 2.08318C0 0.867993 0.823256 0.0144663 1.99535 0.0144663C3.33488 0.0144663 4.67442 0.0144663 6.01395 0.0144663C6.85116 0.0144663 7.60465 0.245931 8.30233 0.723327C8.48372 0.853526 8.67907 0.969258 8.84651 1.09946C8.95814 1.18626 9.02791 1.18626 9.15349 1.09946C9.57209 0.824593 9.97674 0.549728 10.4093 0.318264C10.8558 0.0867988 11.3581 0 11.8744 0C13.2837 0 14.693 0 16.0884 0C17.1488 0 18 0.882459 18 1.98192C18 5.98915 18 9.99638 18 13.9892C18 15.1031 17.1488 15.9855 16.0744 15.9855C13.7163 16 11.3581 16 9 16ZM9.64186 12.0651C9.71163 12.0362 9.73954 12.0072 9.7814 11.9928C10.4791 11.5298 11.2326 11.3273 12.0558 11.3273C13.5349 11.3418 15 11.3273 16.4791 11.3273C16.5628 11.3273 16.6326 11.3273 16.7163 11.3273C16.7163 11.2694 16.7302 11.2405 16.7302 11.2116C16.7302 8.14466 16.7302 5.09222 16.7302 2.02532C16.7302 1.59132 16.4512 1.31646 16.0326 1.31646C14.6651 1.31646 13.2977 1.31646 11.9302 1.31646C11.4279 1.31646 10.9535 1.46112 10.5209 1.75045C10.2977 1.90958 10.0744 2.06872 9.83721 2.21338C9.69767 2.30018 9.65581 2.40145 9.65581 2.56058C9.65581 5.64195 9.65581 8.72333 9.65581 11.8047C9.64186 11.8915 9.64186 11.9638 9.64186 12.0651ZM8.35814 11.9928C8.35814 11.9494 8.35814 11.877 8.35814 11.7902C8.35814 8.92586 8.35814 6.06148 8.35814 3.19711C8.35814 2.92224 8.44186 2.58951 8.33023 2.37251C8.21861 2.15552 7.89768 2.03978 7.67442 1.88065C7.14419 1.49005 6.55814 1.31646 5.90233 1.31646C4.6186 1.33092 3.34884 1.31646 2.06512 1.31646C1.52093 1.31646 1.28372 1.56239 1.28372 2.12658C1.28372 5.10669 1.28372 8.10127 1.28372 11.0814C1.28372 11.1537 1.28372 11.226 1.28372 11.3128C1.3814 11.3128 1.45116 11.3128 1.52093 11.3128C3.02791 11.3128 4.54884 11.3128 6.05581 11.3128C6.37674 11.3128 6.69767 11.3418 7.00465 11.4286C7.47907 11.6022 7.91163 11.8192 8.35814 11.9928Z" fill="#00C8B3"/>
</svg>
