<svg width="30" height="30" viewBox="0 0 30 30" fill="none" xmlns="http://www.w3.org/2000/svg">
<path d="M10.6888 18.5136C9.54619 18.5136 8.42017 18.5136 7.2776 18.5136C6.05224 18.5136 5.07526 17.6194 5.04214 16.4106C5.00902 15.0031 4.95934 13.579 5.0587 12.1715C5.30708 8.61133 8.08899 5.64727 11.6326 5.1505C13.1395 4.93523 14.696 4.88555 16.1532 5.44856C18.6205 6.40898 20.0777 8.23047 20.4751 10.8302C20.9388 13.8937 19.2498 16.8246 16.4347 18.0168C15.6565 18.348 14.8285 18.5136 13.984 18.5136C12.8745 18.5136 11.7817 18.5136 10.6888 18.5136ZM13.0733 12.7676C14.8119 12.7511 16.1036 11.0455 15.6565 9.32337C15.2922 7.94897 13.9343 7.10446 12.5434 7.31973C11.2849 7.51844 10.2582 8.72724 10.2748 10.0188C10.2748 10.4328 10.5728 10.7309 10.9703 10.764C11.3677 10.7971 11.6989 10.5156 11.7485 10.1182C11.7651 10.0354 11.7651 9.95261 11.7817 9.86981C11.8644 9.17434 12.5434 8.67757 13.2223 8.79348C13.9178 8.90939 14.398 9.62143 14.2324 10.3003C14.0834 10.8799 13.6859 11.1945 12.9905 11.2773C12.5268 11.327 12.2453 11.6416 12.2784 12.0556C12.295 12.4861 12.6096 12.7676 13.0733 12.7676ZM14.0006 15.0528C14.0171 14.5063 13.5866 14.0427 13.0401 14.0261C12.5102 14.0096 12.03 14.4401 12.0135 14.9865C11.9804 15.5164 12.4275 15.9966 12.9739 16.0132C13.5203 16.0298 13.9674 15.6158 14.0006 15.0528Z" fill="#FF6633"/>
<path d="M10.5566 20.0213C10.7553 20.0213 10.8713 20.0213 11.0037 20.0213C11.931 20.0213 12.8418 20.0213 13.7691 20.0213C16.1867 20.0047 18.24 19.1436 19.8794 17.3553C21.0882 16.0471 21.7836 14.5071 21.9824 12.7353C22.032 12.2551 22.032 11.7583 22.0651 11.1953C22.4129 11.5431 22.7606 11.8411 23.0587 12.1889C24.3503 13.6792 24.9961 15.4344 24.9961 17.4049C24.9961 18.5972 25.0127 19.7729 24.9795 20.9651C24.9464 22.0746 23.9529 22.9853 22.8269 23.0019C20.5086 23.0019 18.1738 23.0516 15.8555 22.9853C13.6201 22.9356 11.8979 21.8593 10.5566 20.0213Z" fill="#FF6633"/>
</svg>
