<svg width="18" height="18" viewBox="0 0 18 18" fill="none" xmlns="http://www.w3.org/2000/svg">
<path d="M11.2158 14.4025C11.6346 14.7683 12.0129 15.0935 12.4048 15.4186C12.9858 15.9199 13.5668 16.4077 14.1342 16.909C14.2558 17.0174 14.3369 17.18 14.3774 17.329C14.4315 17.5729 14.2964 17.8168 14.0802 17.9252C13.837 18.0471 13.5938 18.02 13.3776 17.8439C12.7966 17.3561 12.2156 16.8548 11.6481 16.3535C10.9185 15.7303 10.2024 15.107 9.47278 14.4838C9.40522 14.4296 9.31064 14.4025 9.22957 14.3889C8.81071 14.3076 8.49995 14.4838 8.17567 14.7547C7.01369 15.7845 5.81116 16.8006 4.62215 17.8032C4.28437 18.0878 3.83849 18.0065 3.66284 17.6406C3.54124 17.3832 3.59528 17.1122 3.852 16.8819C4.51406 16.3129 5.17612 15.7438 5.83819 15.1748C6.13544 14.9173 6.43269 14.6599 6.77048 14.3754C6.66239 14.3754 6.59483 14.3754 6.52727 14.3754C5.36528 14.3754 4.2033 14.3754 3.04131 14.3754C1.9739 14.3754 1.20375 13.5895 1.20375 12.5327C1.20375 9.98553 1.20375 7.45189 1.20375 4.9047C1.20375 4.83695 1.20375 4.75566 1.20375 4.68791C0.636266 4.44403 0.244433 4.06467 0.0687839 3.46851C-0.255492 2.35751 0.609243 1.1923 1.77123 1.1923C3.90604 1.1923 6.02735 1.1923 8.16216 1.1923C8.22972 1.1923 8.31079 1.1923 8.40537 1.1923C8.40537 0.989068 8.40537 0.799384 8.40537 0.6097C8.40537 0.257429 8.66209 0 8.99987 0C9.33766 0 9.59438 0.257429 9.60789 0.6097C9.60789 0.799384 9.60789 0.989068 9.60789 1.20585C9.70247 1.20585 9.77003 1.20585 9.8511 1.20585C11.9589 1.20585 14.0532 1.20585 16.161 1.20585C17.2419 1.20585 18.0391 2.00523 17.9985 3.08915C17.9715 3.79369 17.6067 4.30855 16.9716 4.62017C16.8365 4.68791 16.796 4.75566 16.796 4.9047C16.796 7.45189 16.796 9.99908 16.796 12.5463C16.796 13.4947 16.188 14.2128 15.2557 14.3889C15.1476 14.4025 15.0395 14.4025 14.9449 14.4025C13.7964 14.4025 12.6345 14.4025 11.486 14.4025C11.4049 14.4025 11.3374 14.4025 11.2158 14.4025ZM2.39276 4.80985C2.39276 4.89115 2.39276 4.94534 2.39276 4.99954C2.39276 7.49253 2.39276 9.99908 2.39276 12.4921C2.39276 12.9663 2.63597 13.1966 3.10887 13.1966C7.0272 13.1966 10.9455 13.1966 14.8639 13.1966C15.3368 13.1966 15.58 12.9663 15.58 12.4785C15.58 9.98553 15.58 7.49253 15.58 4.99954C15.58 4.93179 15.58 4.86405 15.58 4.7963C11.1752 4.80985 6.7975 4.80985 2.39276 4.80985Z" fill="white"/>
</svg>
