<svg width="30" height="30" viewBox="0 0 30 30" fill="none" xmlns="http://www.w3.org/2000/svg">
<path d="M9.51892 19.8023C9.62401 19.8023 9.69907 19.8023 9.77413 19.8023C12.2362 19.8023 14.7132 19.8023 17.1753 19.8023C18.1211 19.8023 18.8717 19.2319 19.0819 18.3461C19.1269 18.166 19.1419 17.9858 19.1419 17.8057C19.1419 16.1393 19.1419 14.4729 19.1419 12.8065C19.1419 11.6055 18.3313 10.7948 17.1453 10.7948C14.6832 10.7948 12.2362 10.7948 9.77413 10.7948C9.69907 10.7948 9.60899 10.7948 9.50391 10.7948C9.50391 10.7198 9.50391 10.6447 9.50391 10.5696C9.50391 9.26355 9.50391 7.95746 9.50391 6.65138C9.50391 5.70559 10.1945 5 11.1403 5C13.3021 5 15.4639 5 17.6257 5C17.6857 5 17.7608 5 17.8509 5C17.8509 5.09008 17.8509 5.15013 17.8509 5.22519C17.8509 6.39616 17.8509 7.56714 17.8509 8.73812C17.8509 9.59383 18.3913 10.1343 19.262 10.1343C20.433 10.1343 21.589 10.1343 22.76 10.1343C22.835 10.1343 22.9101 10.1343 23.0002 10.1343C23.0002 10.2244 23.0002 10.2844 23.0002 10.3595C23.0002 14.0075 23.0002 17.6555 23.0002 21.2886C23.0002 22.2794 22.3246 22.97 21.3338 22.97C17.9559 22.97 14.5631 22.97 11.1853 22.97C10.2245 22.97 9.53393 22.2794 9.51892 21.3186C9.51892 20.8382 9.51892 20.3278 9.51892 19.8023Z" fill="#FF6633"/>
<path d="M11.7556 11.457C13.5721 11.457 15.3887 11.457 17.2052 11.457C17.9708 11.457 18.4962 11.9825 18.4962 12.7481C18.4962 14.4595 18.4962 16.1559 18.4962 17.8674C18.4962 18.633 17.9708 19.1584 17.1902 19.1584C13.5571 19.1584 9.9241 19.1584 6.29108 19.1584C5.52544 19.1584 5 18.633 5 17.8674C5 16.1559 5 14.4595 5 12.7481C5 11.9825 5.52544 11.457 6.30609 11.457C8.13761 11.457 9.93912 11.457 11.7556 11.457ZM15.9141 15.6305C15.9892 16.1409 15.6889 16.5463 15.2235 16.5913C14.7131 16.6363 14.3378 16.2911 14.3228 15.7656C14.3228 15.4654 14.3228 15.1801 14.3228 14.8799C14.3078 14.5196 14.4579 14.2343 14.7882 14.0842C15.1334 13.9341 15.4337 14.0092 15.7039 14.2644C15.8691 14.4145 16.0492 14.4145 16.1843 14.2794C16.3194 14.1443 16.3044 13.9641 16.1393 13.799C15.7339 13.4087 15.2385 13.2735 14.6981 13.4537C14.1576 13.6188 13.7973 13.9941 13.7223 14.5646C13.6622 15 13.6622 15.4504 13.6922 15.8857C13.7373 16.6213 14.3078 17.1768 15.0434 17.2368C15.6889 17.2969 16.3495 16.8315 16.5146 16.171C16.5746 15.9157 16.5746 15.6305 16.5746 15.3603C16.5746 15.1201 16.4395 15 16.1993 15C15.9141 15 15.6439 15 15.3586 15C15.1334 15 14.9683 15.1351 14.9833 15.3152C14.9833 15.5104 15.1334 15.6305 15.3736 15.6305C15.5538 15.6305 15.7339 15.6305 15.9141 15.6305ZM13.0617 15.3002C13.0467 15.1201 13.0617 14.9549 13.0467 14.7748C13.0167 14.0092 12.4312 13.4237 11.6806 13.3786C10.975 13.3336 10.2994 13.844 10.1943 14.5796C10.1343 15 10.1343 15.4504 10.1643 15.8857C10.2093 16.6363 10.8249 17.2068 11.5605 17.2218C12.2811 17.2519 12.8966 16.7264 13.0167 15.9908C13.0617 15.7656 13.0467 15.5404 13.0617 15.3002ZM7.58215 16.5913C7.58215 16.4862 7.58215 16.4112 7.58215 16.3511C7.58215 15.4954 7.58215 14.6247 7.58215 13.769C7.58215 13.5438 7.46205 13.4087 7.26689 13.3936C7.08674 13.3786 6.93661 13.5288 6.93661 13.7389C6.93661 14.7898 6.93661 15.8407 6.93661 16.8916C6.93661 17.1167 7.07173 17.2368 7.2819 17.2368C7.89741 17.2368 8.52794 17.2519 9.14345 17.2368C9.24854 17.2368 9.38365 17.1618 9.4437 17.0717C9.59383 16.8615 9.41368 16.6063 9.11343 16.6063C8.63303 16.5913 8.1226 16.5913 7.58215 16.5913Z" fill="#FF6633"/>
<path d="M18.5713 5.17969C19.9674 6.60588 21.3786 8.04708 22.7748 9.47327C22.7748 9.48828 22.7598 9.50329 22.7598 9.5183C22.6997 9.5183 22.6397 9.5183 22.5946 9.5183C21.4687 9.5183 20.3428 9.5183 19.2168 9.5183C18.7664 9.5183 18.5112 9.2781 18.5112 8.81272C18.5112 7.61171 18.5112 6.42573 18.5112 5.22472C18.5262 5.20971 18.5413 5.1947 18.5713 5.17969Z" fill="#FF6633"/>
<path d="M12.4013 15.2995C12.4013 15.4797 12.4013 15.6448 12.4013 15.8249C12.3862 16.2603 12.041 16.5906 11.5906 16.5906C11.1552 16.5906 10.8099 16.2603 10.7949 15.8249C10.7949 15.4797 10.7949 15.1344 10.7949 14.7891C10.8099 14.3687 11.1552 14.0234 11.5906 14.0234C12.041 14.0234 12.3862 14.3537 12.4013 14.7891C12.4013 14.9542 12.4013 15.1344 12.4013 15.2995Z" fill="#FF6633"/>
</svg>
