<svg width="30" height="30" viewBox="0 0 30 30" fill="none" xmlns="http://www.w3.org/2000/svg">
<path d="M21.2586 20.8816C21.2586 21.6134 21.2586 22.3317 21.2586 23.0635C21.3251 23.077 21.3783 23.077 21.4315 23.0906C21.7906 23.1312 22.0566 23.4429 22.0566 23.8088C22.0566 24.1883 21.764 24.4864 21.3916 24.5C21.3384 24.5 21.2852 24.5 21.2319 24.5C17.3481 24.5 13.4642 24.4864 9.56707 24.5C8.30349 24.5 7.33252 23.6462 7.07981 22.5892C7.0266 22.3588 7 22.1148 7 21.8709C7 17.2903 7 12.7097 7 8.11555C7 6.78745 7.82465 5.78459 9.10154 5.54066C9.26115 5.51355 9.42076 5.51355 9.58037 5.51355C13.4642 5.51355 17.3348 5.51355 21.2186 5.5C21.7374 5.5 22.0566 5.82525 22.0566 6.35378C22.0433 10.8937 22.0566 15.4472 22.0566 19.9872C22.0566 20.5835 21.8305 20.8138 21.2586 20.8816ZM19.8354 23.077C19.8354 22.3181 19.8354 21.5999 19.8354 20.8545C19.7689 20.8545 19.7023 20.8545 19.6491 20.8545C16.2973 20.8545 12.9322 20.8545 9.58037 20.8545C9.54047 20.8545 9.48727 20.8545 9.44736 20.8545C8.75572 20.8952 8.27689 21.5321 8.4365 22.2233C8.5562 22.7382 8.99513 23.0635 9.59367 23.0635C12.9455 23.0635 16.2973 23.0635 19.6358 23.0635C19.7023 23.077 19.7689 23.077 19.8354 23.077ZM14.515 10.2568C15.6456 10.2568 16.7895 10.2568 17.92 10.2568C18.0397 10.2568 18.1727 10.2297 18.2925 10.1755C18.5718 10.0399 18.7314 9.71469 18.6649 9.41655C18.5851 9.06419 18.3191 8.84736 17.9466 8.84736C15.6855 8.84736 13.4243 8.84736 11.1632 8.84736C10.7242 8.84736 10.405 9.14551 10.405 9.55207C10.405 9.97218 10.7109 10.2568 11.1765 10.2568C12.2805 10.2568 13.3977 10.2568 14.515 10.2568Z" fill="#FF9500"/>
</svg>
