<svg width="30" height="30" viewBox="0 0 30 30" fill="none" xmlns="http://www.w3.org/2000/svg">
<path d="M14 23C11.6698 23 9.33954 23 7.0093 23C5.82326 23 5 22.1465 5 20.9313C5 16.9819 5 13.0325 5 9.08318C5 7.86799 5.82326 7.01447 6.99535 7.01447C8.33488 7.01447 9.67442 7.01447 11.014 7.01447C11.8512 7.01447 12.6047 7.24593 13.3023 7.72333C13.4837 7.85353 13.6791 7.96926 13.8465 8.09946C13.9581 8.18626 14.0279 8.18626 14.1535 8.09946C14.5721 7.82459 14.9767 7.54973 15.4093 7.31826C15.8558 7.0868 16.3581 7 16.8744 7C18.2837 7 19.693 7 21.0884 7C22.1488 7 23 7.88246 23 8.98192C23 12.9892 23 16.9964 23 20.9892C23 22.1031 22.1488 22.9855 21.0744 22.9855C18.7163 23 16.3581 23 14 23ZM14.6419 19.0651C14.7116 19.0362 14.7395 19.0072 14.7814 18.9928C15.4791 18.5298 16.2326 18.3273 17.0558 18.3273C18.5349 18.3418 20 18.3273 21.4791 18.3273C21.5628 18.3273 21.6326 18.3273 21.7163 18.3273C21.7163 18.2694 21.7302 18.2405 21.7302 18.2116C21.7302 15.1447 21.7302 12.0922 21.7302 9.02532C21.7302 8.59132 21.4512 8.31646 21.0326 8.31646C19.6651 8.31646 18.2977 8.31646 16.9302 8.31646C16.4279 8.31646 15.9535 8.46112 15.5209 8.75045C15.2977 8.90958 15.0744 9.06872 14.8372 9.21338C14.6977 9.30018 14.6558 9.40145 14.6558 9.56058C14.6558 12.642 14.6558 15.7233 14.6558 18.8047C14.6419 18.8915 14.6419 18.9638 14.6419 19.0651ZM13.3581 18.9928C13.3581 18.9494 13.3581 18.877 13.3581 18.7902C13.3581 15.9259 13.3581 13.0615 13.3581 10.1971C13.3581 9.92224 13.4419 9.58951 13.3302 9.37251C13.2186 9.15552 12.8977 9.03978 12.6744 8.88065C12.1442 8.49005 11.5581 8.31646 10.9023 8.31646C9.6186 8.33092 8.34884 8.31646 7.06512 8.31646C6.52093 8.31646 6.28372 8.56239 6.28372 9.12658C6.28372 12.1067 6.28372 15.1013 6.28372 18.0814C6.28372 18.1537 6.28372 18.226 6.28372 18.3128C6.3814 18.3128 6.45116 18.3128 6.52093 18.3128C8.02791 18.3128 9.54884 18.3128 11.0558 18.3128C11.3767 18.3128 11.6977 18.3418 12.0047 18.4286C12.4791 18.6022 12.9116 18.8192 13.3581 18.9928Z" fill="#00C7BE"/>
</svg>
