<svg width="17" height="20" viewBox="0 0 17 20" fill="none" xmlns="http://www.w3.org/2000/svg">
<path d="M13.8933 2.65891H12.2036V2.13263H10.6342C10.3743 1.02664 9.44355 0 8.27534 0C7.10714 0 6.11223 1.02502 5.85228 2.13263H4.27648V2.65891H3.10827C2.70292 2.65094 2.30006 2.72464 1.92327 2.87569C1.54648 3.02673 1.20333 3.2521 0.913891 3.53859C0.624456 3.82509 0.394552 4.16696 0.237631 4.5442C0.0807102 4.92144 -7.52026e-05 5.32648 1.67971e-06 5.7356V16.6805C-0.000854772 17.5142 0.325837 18.3141 0.908476 18.9051C1.49111 19.4961 2.28217 19.8299 3.10827 19.8333H13.8917C14.7178 19.8299 15.5089 19.4961 16.0915 18.9051C16.6742 18.3141 17.0009 17.5142 17 16.6805V5.72913C17.0001 5.32014 16.9193 4.91524 16.7625 4.5381C16.6057 4.16097 16.3759 3.81918 16.0867 3.5327C15.7974 3.24623 15.4544 3.02083 15.0778 2.86969C14.7012 2.71854 14.2986 2.64468 13.8933 2.65243V2.65891Z" fill="#F79029"/>
<path d="M15.9374 16.7757C15.9396 17.0364 15.8902 17.2949 15.792 17.5364C15.6939 17.7779 15.549 17.9977 15.3656 18.1831C15.1822 18.3685 14.9639 18.516 14.7234 18.6169C14.4828 18.7179 14.2246 18.7704 13.9636 18.7715H3.0574C2.52816 18.7702 2.021 18.5594 1.64707 18.1853C1.27314 17.8112 1.06293 17.3043 1.0625 16.7757V5.81443C1.0625 4.70711 1.96337 3.89648 3.0574 3.89648H4.24558V7.03199H12.2544V3.89648H13.9636C15.0609 3.89648 15.9374 4.70711 15.9374 5.80794V16.7692V16.7757Z" fill="#F79029"/>
<path d="M12.8466 7.88145C12.785 7.84083 12.7162 7.81311 12.6442 7.7999C12.5721 7.78668 12.4982 7.78823 12.4268 7.80444C12.3553 7.82065 12.2877 7.85122 12.2277 7.89438C12.1678 7.93754 12.1167 7.99245 12.0775 8.05595L8.10578 14.5206L5.50885 12.3721C5.45215 12.325 5.38688 12.2899 5.31687 12.2689C5.24685 12.248 5.17348 12.2416 5.10103 12.25C5.02858 12.2585 4.95849 12.2818 4.89486 12.3184C4.83123 12.355 4.77532 12.4043 4.73039 12.4634C4.64 12.5819 4.5985 12.7322 4.6148 12.8819C4.63111 13.0316 4.70392 13.1688 4.81758 13.2638L7.8956 15.8077C7.99244 15.89 8.11403 15.9353 8.23968 15.9358C8.27348 15.9381 8.30743 15.9365 8.34088 15.931C8.41791 15.9181 8.49137 15.8884 8.55635 15.844C8.62132 15.7995 8.67632 15.7413 8.71765 15.6733L13.0272 8.67231C13.1046 8.54342 13.1299 8.38847 13.0976 8.24064C13.0653 8.09282 12.978 7.96388 12.8544 7.88145H12.8466Z" fill="white"/>
<path d="M6.79286 3.53509V2.76773C6.80331 2.40697 6.95411 2.06436 7.21345 1.81218C7.47279 1.55999 7.8204 1.41795 8.18292 1.41602C8.3572 1.41911 8.52911 1.45669 8.68865 1.52656C8.8482 1.59642 8.99219 1.69719 9.11225 1.82298C9.2323 1.94877 9.32603 2.09708 9.38796 2.25927C9.44989 2.42147 9.4788 2.59431 9.473 2.76773V3.53509H10.9792V6.02018H5.3125V3.53509H6.79286Z" fill="white"/>
</svg>
