<svg width="30" height="30" viewBox="0 0 30 30" fill="none" xmlns="http://www.w3.org/2000/svg">
<path d="M6.021 11.4805C12.0258 11.4805 17.9956 11.4805 24.0004 11.4805C24.0004 11.5505 24.0004 11.6381 24.0004 11.7081C24.0004 14.9827 24.0004 18.2572 24.0004 21.5318C24.0004 22.4774 23.3702 23.2129 22.4423 23.3705C22.3022 23.388 22.1622 23.4055 22.0221 23.4055C17.2253 23.4055 12.4109 23.4055 7.61411 23.4055C6.66874 23.4055 6.0385 22.7926 6.021 21.847C6.021 21.5318 6.021 21.2341 6.021 20.9189C6.021 17.8545 6.021 14.7901 6.021 11.7081C6.021 11.6381 6.021 11.5505 6.021 11.4805ZM19.2561 13.5468C19.0285 13.5468 18.8184 13.5468 18.5908 13.5468C18.3107 13.5468 18.1356 13.7044 18.1356 13.967C18.1181 14.4398 18.1181 14.9301 18.1356 15.4029C18.1356 15.6656 18.3107 15.8232 18.5733 15.8232C19.046 15.8232 19.5187 15.8232 19.9914 15.8232C20.2715 15.8232 20.4115 15.6656 20.4115 15.3854C20.4115 14.9126 20.4115 14.4573 20.4115 13.9845C20.4115 13.7044 20.2189 13.5293 19.9563 13.5293C19.7113 13.5468 19.4837 13.5468 19.2561 13.5468ZM20.4115 19.7282C20.4115 19.5005 20.4115 19.2904 20.4115 19.0627C20.4115 18.7651 20.2365 18.5899 19.9388 18.5899C19.4837 18.5899 19.0285 18.5899 18.5908 18.5899C18.2932 18.5899 18.1356 18.7475 18.1356 19.0277C18.1181 19.483 18.1181 19.9558 18.1356 20.4111C18.1356 20.7088 18.3282 20.8489 18.6258 20.8664C19.0635 20.8664 19.5187 20.8664 19.9563 20.8664C20.2715 20.8664 20.4115 20.7088 20.429 20.3936C20.4115 20.1834 20.4115 19.9558 20.4115 19.7282ZM9.20722 14.6675C9.20722 14.8951 9.20722 15.1228 9.20722 15.3504C9.20722 15.6306 9.36478 15.8057 9.64489 15.8232C10.1001 15.8407 10.5552 15.8407 11.0104 15.8232C11.2905 15.8232 11.4656 15.6306 11.4831 15.3504C11.5006 14.8951 11.5006 14.4398 11.4831 13.9845C11.4831 13.7219 11.308 13.5468 11.0279 13.5468C10.5727 13.5468 10.1176 13.5468 9.6799 13.5468C9.38229 13.5468 9.20722 13.7219 9.20722 14.0196C9.20722 14.2472 9.20722 14.4573 9.20722 14.6675ZM9.20722 19.7282C9.20722 19.9558 9.20722 20.1659 9.20722 20.3936C9.20722 20.6913 9.38229 20.8839 9.69741 20.8839C10.1176 20.8839 10.5552 20.8839 10.9754 20.8839C11.2905 20.8839 11.4831 20.7088 11.5006 20.3936C11.5181 19.9383 11.5181 19.483 11.5006 19.0452C11.5006 18.7651 11.343 18.6075 11.0629 18.6075C10.6078 18.6075 10.1351 18.6075 9.66239 18.6075C9.38229 18.6075 9.22473 18.7826 9.20722 19.0627C9.20722 19.2729 9.20722 19.5005 9.20722 19.7282ZM14.7919 15.8232C15.0195 15.8232 15.247 15.8232 15.4746 15.8232C15.7722 15.8057 15.9123 15.6831 15.9123 15.3854C15.9123 14.9301 15.9123 14.4573 15.9123 14.0021C15.9123 13.7044 15.7372 13.5468 15.4396 13.5468C15.0019 13.5468 14.5468 13.5468 14.1091 13.5468C13.8115 13.5468 13.6364 13.7219 13.6364 14.0196C13.6364 14.4573 13.6364 14.9126 13.6364 15.3504C13.6364 15.6481 13.794 15.8057 14.0916 15.8232C14.3192 15.8407 14.5643 15.8232 14.7919 15.8232ZM14.7744 20.8839C15.0019 20.8839 15.212 20.8839 15.4396 20.8839C15.7547 20.8839 15.9123 20.7438 15.9123 20.4286C15.9123 19.9733 15.9123 19.518 15.9123 19.0627C15.9123 18.7651 15.7547 18.6075 15.4571 18.5899C15.0019 18.5899 14.5468 18.5899 14.0916 18.5899C13.794 18.5899 13.6189 18.7651 13.6189 19.0627C13.6189 19.5005 13.6189 19.9383 13.6189 20.3761C13.6189 20.6738 13.794 20.8489 14.1091 20.8664C14.3367 20.8839 14.5643 20.8839 14.7744 20.8839Z" fill="#FF9500"/>
<path d="M23.9259 10.2893C17.9386 10.2893 11.9863 10.2893 5.99902 10.2893C5.99902 10.1142 5.99902 9.95657 5.99902 9.79897C5.99902 9.25613 5.99902 8.71328 5.99902 8.17044C6.01653 7.45249 6.43669 6.8396 7.04943 6.66449C7.13696 6.62947 7.22449 6.61196 7.32953 6.61196C7.92476 6.61196 8.51999 6.61196 9.13273 6.61196C9.13273 6.68201 9.15023 6.75205 9.15023 6.8396C9.15023 7.32991 9.15023 7.83773 9.15023 8.32804C9.15023 8.5732 9.30779 8.76582 9.55289 8.83586C9.76297 8.90591 10.0256 8.83586 10.1481 8.62573C10.2181 8.52066 10.2532 8.38058 10.2532 8.24049C10.2707 7.76769 10.2532 7.29489 10.2532 6.82209C10.2532 6.75205 10.2532 6.68201 10.2532 6.61196C13.2468 6.61196 16.2229 6.61196 19.2166 6.61196C19.2166 6.68201 19.2341 6.73454 19.2341 6.80458C19.2341 7.29489 19.2341 7.80271 19.2341 8.29302C19.2341 8.55569 19.3917 8.74831 19.6368 8.81835C19.8468 8.8884 20.1094 8.81835 20.232 8.62573C20.302 8.52066 20.337 8.38058 20.337 8.24049C20.3545 7.76769 20.337 7.29489 20.337 6.82209C20.337 6.75205 20.337 6.68201 20.337 6.59445C20.7922 6.59445 21.2299 6.59445 21.65 6.59445C21.9827 6.59445 22.3328 6.57694 22.6654 6.71703C23.2782 6.96218 23.7508 7.34743 23.9084 8.03036C23.9084 8.06538 23.9259 8.1004 23.9259 8.13542C23.9259 8.85337 23.9259 9.55381 23.9259 10.2893Z" fill="#FF9500"/>
</svg>
