<svg width="30" height="30" viewBox="0 0 30 30" fill="none" xmlns="http://www.w3.org/2000/svg">
<path d="M24.7643 12.4895C24.612 12.4189 24.3185 12.5267 24.1458 12.6418C23.139 13.3198 22.5038 14.2355 22.4109 15.4782C22.383 15.8497 22.3217 16.2212 22.318 16.5778C22.3256 16.7417 22.2809 16.9038 22.1905 17.0407C22.1 17.1775 21.9684 17.2821 21.8147 17.3394C21.1382 17.6636 20.4879 18.0399 19.8699 18.465C18.9077 19.1467 18.4935 20.1981 18.1498 21.2791C18.0807 21.4572 18.002 21.6315 17.9139 21.8011C17.8601 21.6339 17.8266 21.5875 17.8378 21.5522C18.265 19.9863 18.9356 18.5802 20.4587 17.7796C20.8302 17.579 21.2017 17.3487 21.5992 17.1834C21.7474 17.1349 21.8756 17.0394 21.9645 16.9113C22.0534 16.7832 22.0979 16.6296 22.0914 16.4738C22.1713 15.376 22.227 14.2578 23.0016 13.3514C23.0711 13.2347 23.0943 13.0962 23.0666 12.9632C22.8195 11.4047 22.5985 9.84074 22.2846 8.29532C22.14 7.66983 21.8974 7.07114 21.5658 6.52142C21.2574 6.00504 20.6017 6.06077 20.3287 6.59572C20.2359 6.83181 20.2102 7.08894 20.2544 7.33872C20.5144 9.29279 20.7968 11.2357 21.0717 13.1786C21.0742 13.276 21.0648 13.3733 21.0438 13.4684C20.9101 13.4015 20.8748 13.3384 20.858 13.2697C20.5794 11.297 20.302 9.32313 20.0259 7.348C19.9412 6.5666 19.653 5.82109 19.19 5.18589C18.9746 4.90542 18.6997 4.71038 18.3133 4.84783C17.927 4.98529 17.8322 5.3122 17.8415 5.66327C17.8539 6.03084 17.8924 6.39706 17.9567 6.75918C18.3114 8.90643 18.6737 11.0518 19.0284 13.1991C19.0378 13.3116 19.0378 13.4246 19.0284 13.5371H18.891C18.865 13.4275 18.8315 13.318 18.813 13.2065C18.5021 11.3787 18.1926 9.55036 17.8842 7.72136C17.8081 7.26442 17.6539 6.85763 17.2044 6.63845C16.7995 6.44527 16.428 6.61058 16.428 7.06752C16.4286 7.61725 16.4758 8.16593 16.5691 8.70768C16.8106 10.2215 17.0837 11.7298 17.3363 13.2418C17.3502 13.4149 17.3502 13.5888 17.3363 13.7619H17.1932C17.0632 13.0003 16.9295 12.2388 16.7995 11.4772C16.6645 10.676 16.5301 9.8748 16.3964 9.07361C16.3332 8.68353 16.0936 8.44763 15.7166 8.45321C15.3395 8.45878 15.2596 8.80613 15.2392 9.12004C15.2265 9.31956 15.239 9.51989 15.2763 9.71629C15.3934 10.3646 15.5289 11.0165 15.6478 11.6555C15.8336 12.6047 16.0193 13.5557 15.7741 14.5216C15.0321 17.3102 15.0693 20.2489 15.8819 23.0177C15.9442 23.2966 15.9442 23.5858 15.8819 23.8647C15.8039 24.3068 15.6645 24.7359 15.5438 25.1966H21.5676C21.159 24.1842 21.0958 23.5768 21.3113 22.6146C21.3472 22.4563 21.4339 22.3141 21.5583 22.2097C23.2301 20.8742 24.4783 19.3065 24.5897 17.0329C24.6566 15.703 24.8776 14.3823 24.9984 13.0542C25.0151 12.861 24.9055 12.5508 24.7643 12.4895Z" fill="#30B0C7"/>
<path d="M14.1543 22.7279C14.8453 20.3131 14.9902 17.852 14.3735 15.4112C14.0429 14.1037 14.0429 12.7345 14.3735 11.4269C14.5465 10.6805 14.6706 9.92346 14.745 9.16081C14.7784 8.85061 14.7004 8.48654 14.2639 8.45125C13.9481 8.42524 13.6472 8.7503 13.5841 9.1348C13.3364 10.6022 13.0887 12.0678 12.8411 13.5315C12.8151 13.6181 12.7782 13.7011 12.7315 13.7785C12.6915 13.7399 12.6616 13.6922 12.6441 13.6395C12.6266 13.5867 12.6222 13.5306 12.6312 13.4757C12.8671 12.0548 13.1179 10.6375 13.3407 9.20353C13.4586 8.51076 13.5367 7.81183 13.5748 7.11015C13.5952 6.60677 13.2033 6.41545 12.7501 6.65506C12.347 6.86867 12.1928 7.24017 12.1167 7.66739C11.8059 9.52487 11.4932 11.3824 11.1786 13.2398C11.1535 13.3424 11.1194 13.4424 11.0765 13.5389C11.0316 13.5044 10.9962 13.459 10.9738 13.4069C10.9514 13.3549 10.9426 13.298 10.9483 13.2417C11.1341 12.1068 11.3198 10.9737 11.5056 9.83879C11.7136 8.50512 11.9365 7.1603 12.1315 5.80248C12.191 5.39012 12.1315 4.97776 11.6412 4.83102C11.1879 4.69356 10.8666 4.96847 10.7124 5.32139C10.4245 5.95665 10.1162 6.62163 10.001 7.29032C9.6648 9.26111 9.42519 11.2412 9.14656 13.2157C9.11882 13.3085 9.08016 13.3976 9.0314 13.4813L8.89023 13.4386C8.99425 12.6584 9.09084 11.8764 9.20229 11.0982C9.38804 9.77749 9.58679 8.45868 9.77253 7.13801C9.80933 6.94622 9.77492 6.74759 9.67576 6.57936C9.57659 6.41112 9.41948 6.28482 9.23387 6.22413C8.82708 6.05881 8.53545 6.28542 8.35342 6.61234C8.13654 6.96391 7.97316 7.34577 7.86862 7.7454C7.56399 9.21467 7.31138 10.6951 7.03276 12.1681C6.91016 12.8015 6.84701 13.4052 7.37639 13.9085C7.43202 13.9821 7.46669 14.0694 7.47669 14.1611C7.60672 14.8336 7.77575 15.5041 7.84819 16.1839C7.90205 16.6985 8.03394 17.0384 8.56332 17.2576C10.4208 18.0117 11.6263 19.3547 12.0925 21.3217C12.1116 21.4447 12.1221 21.5688 12.1241 21.6932L11.9922 21.7155C11.9309 21.5298 11.8678 21.344 11.8065 21.1583C11.4461 20.0642 10.9836 19.0278 9.99172 18.3535C9.49226 17.9975 8.95835 17.6926 8.398 17.4433C7.85376 17.2149 7.65501 16.9047 7.65501 16.3121C7.63644 14.9171 7.30023 13.6225 6.04458 12.7829C5.79753 12.6176 5.47619 12.5619 5.19014 12.4541C5.11955 12.7383 4.97281 13.0299 5.00439 13.3067C5.09726 14.5624 5.25143 15.8087 5.38146 17.057C5.5152 18.3461 5.84025 19.5664 6.74299 20.5453C7.26308 21.1026 7.83519 21.6171 8.36642 22.1669C8.52294 22.3209 8.63686 22.5129 8.69705 22.7241C8.91654 23.5585 8.81237 24.445 8.40543 25.2057H14.4255C14.3326 24.8454 14.2676 24.5166 14.1599 24.2027C13.9994 23.7245 13.9975 23.2073 14.1543 22.7279Z" fill="#30B0C7"/>
</svg>
