<svg width="20" height="21" viewBox="0 0 20 21" fill="none" xmlns="http://www.w3.org/2000/svg">
<path d="M9.99834 3.32893e-07C4.33863 3.32893e-07 -0.0395451 4.58578 0.000269391 10.0777C0.0390175 15.4687 4.36103 19.9681 10.0328 20.0153C15.6652 19.9325 19.9843 15.4488 20 10.0322C20.016 4.55272 15.6413 -0.00142161 9.99834 3.32893e-07ZM4.34183 5.36501C4.63831 4.48234 5.17331 3.77883 6.08869 3.47417C7.1164 3.13291 8.10537 3.20258 8.9788 3.9196C9.24512 4.13674 9.43578 4.43269 9.52341 4.76495C9.63538 5.18158 9.49426 5.53138 9.18001 5.64087C8.82025 5.766 8.42673 5.5719 8.24045 5.19793C8.14874 5.01308 8.05169 4.8172 7.90879 4.6743C7.42639 4.19048 6.64361 4.27722 6.15588 4.84422C5.82065 5.23526 5.7101 5.71232 5.63438 6.19969C5.58817 6.4951 5.56826 6.79478 5.53591 7.09232C5.91273 6.73683 6.2963 6.4496 6.7826 6.32411C8.00761 6.00915 9.24719 6.64405 9.6944 7.8296C10.0854 8.86655 9.98732 9.85588 9.30336 10.7446C8.70899 11.5149 7.87572 11.8 6.92657 11.7648C5.50463 11.7122 4.52846 10.8896 4.18151 9.43142C3.85695 8.06387 3.89321 6.70022 4.34183 5.36501ZM15.8472 13.7652C15.0338 14.5778 13.8344 14.6894 12.876 14.0456C12.5436 14.7328 11.9215 14.7744 11.2905 14.7609C11.3616 14.9948 11.4608 15.2287 11.502 15.4719C11.5664 15.849 11.5262 16.2276 11.1686 16.4516C10.7836 16.693 10.3695 16.6496 9.99549 16.4111C9.47826 16.0797 9.39899 15.5518 9.42671 14.9941C9.43418 14.837 9.47399 14.6816 9.49781 14.5256V14.5234H9.49497C9.44321 14.5063 9.39051 14.4922 9.33713 14.4811C9.31651 14.4768 9.2959 14.4729 9.27528 14.4701C9.25466 14.4673 9.23049 14.463 9.20845 14.4612C9.08256 14.4471 8.95511 14.4595 8.83428 14.4975C8.71344 14.5355 8.60188 14.5984 8.50671 14.682C7.90772 15.1796 7.22696 15.4576 6.43458 15.4331C5.95858 15.4185 5.56044 15.2536 5.27143 14.8793C5.07911 14.6304 4.92696 14.3521 4.75633 14.0869L4.80787 14.0513C5.01299 14.1406 5.21313 14.2465 5.42464 14.3172C5.95219 14.4925 6.4392 14.4217 6.91769 14.1146C7.2993 13.8776 7.70258 13.6774 8.12208 13.5167C8.31681 13.4363 8.52578 13.3962 8.73643 13.3987C8.94707 13.4012 9.15503 13.4463 9.3478 13.5313C9.55647 13.6205 9.77438 13.687 9.97381 13.7584L9.4971 14.5256H9.49923C9.51665 14.5234 9.53727 14.5156 9.55113 14.5216C9.84548 14.6574 9.98127 14.4505 10.1274 14.2604C10.1985 14.1669 10.2802 14.0826 10.3709 13.976C10.255 13.9095 10.1505 13.8487 10.0328 13.7808C10.3126 13.5803 10.6148 13.5647 10.9215 13.5984L10.9994 13.6084C11.426 13.6656 11.7377 13.5046 11.9237 13.1128C12.0978 12.7446 12.0399 12.3642 11.9457 11.9984C11.7943 11.4101 11.5941 10.8345 11.4366 10.2473C11.1878 9.32584 11.03 8.38842 11.1064 7.43039C11.1448 6.95119 11.3442 6.53456 11.8174 6.33407C12.2351 6.15632 12.592 6.33016 12.9322 6.6085C12.3684 6.85734 12.2482 7.35822 12.2624 7.86693C12.285 8.52744 12.3533 9.1856 12.4668 9.83668C12.56 10.4046 12.6994 10.964 12.8838 11.5092C13.1167 12.1882 13.5927 12.6596 14.2976 12.8754C14.6886 12.9952 15.0797 12.8637 15.309 12.5199C15.8902 11.6557 15.3687 10.3699 14.3474 10.1566C14.2505 10.1426 14.1527 10.135 14.0548 10.1339C14.497 9.84166 15.3122 9.90707 15.7437 10.265C16.2058 10.6465 16.3779 11.1648 16.443 11.7318C16.5301 12.4904 16.4152 13.1975 15.8472 13.7652ZM16.871 7.84595C16.3786 8.27254 15.8137 8.56581 15.2148 8.80577C14.5393 9.07416 13.9489 9.45844 13.5013 10.0422C13.2761 10.3339 13.1183 10.6719 13.0392 11.0318C12.9066 10.6408 12.8454 10.2419 12.8892 9.82921C12.9386 9.37028 13.1437 9.01479 13.5123 8.71974C14.2329 8.14349 14.9254 7.53241 15.6314 6.93875C16.1852 6.47306 16.5023 5.90108 16.433 5.13892C16.9815 5.28645 17.3832 5.83354 17.4447 6.45955C17.5009 7.03189 17.2983 7.47873 16.871 7.84595Z" fill="url(#paint0_linear_7098_10857)"/>
<path d="M9.6941 7.83104C9.2469 6.64442 8.00732 6.01059 6.78231 6.32555C6.296 6.45104 5.91243 6.73685 5.53562 7.09376C5.56797 6.79621 5.58788 6.49654 5.63409 6.20113C5.70981 5.71376 5.82036 5.23598 6.15559 4.84566C6.64332 4.27866 7.4261 4.19192 7.90849 4.67573C8.05069 4.81793 8.14845 5.01451 8.24016 5.19937C8.42644 5.57334 8.81996 5.76815 9.17971 5.6423C9.49396 5.53281 9.63509 5.18301 9.52311 4.76638C9.43548 4.43412 9.24482 4.13818 8.97851 3.92104C8.10472 3.20402 7.11611 3.13434 6.0884 3.4749C5.17302 3.77955 4.63801 4.48306 4.34154 5.36573C3.89291 6.70094 3.85665 8.06459 4.18157 9.43073C4.52852 10.8882 5.50469 11.7115 6.92664 11.7641C7.87579 11.7997 8.70905 11.5153 9.30342 10.7439C9.9888 9.85873 10.0844 8.86799 9.6941 7.83104ZM8.26149 9.90921C7.71369 10.8335 6.64367 10.9206 5.95723 10.0998C5.42613 9.46485 5.28784 8.23736 5.66359 7.49794C5.98744 6.8602 6.54947 6.53458 7.2224 6.59323C7.77021 6.64122 8.28886 7.11615 8.46305 7.75923C8.53593 8.02869 8.56188 8.31094 8.58925 8.4702C8.56685 9.0532 8.50429 9.50289 8.26149 9.90921Z" fill="white"/>
<path d="M16.4344 5.14062C16.9812 5.28922 17.3829 5.83631 17.4447 6.46233C17.5009 7.03395 17.2979 7.4808 16.871 7.84872C16.3783 8.27531 15.8134 8.56859 15.2144 8.80854C14.539 9.07764 13.9482 9.46157 13.501 10.0453C13.2758 10.337 13.118 10.675 13.0388 11.035C12.9062 10.6439 12.8451 10.2451 12.8892 9.83199C12.9379 9.37341 13.143 9.01792 13.512 8.72287C14.2326 8.14662 14.9251 7.5359 15.6314 6.94188C16.1867 6.47512 16.5034 5.90314 16.4344 5.14062Z" fill="white"/>
<path d="M16.4425 11.7287C16.3775 11.1617 16.2036 10.6434 15.7433 10.2619C15.3117 9.90396 14.4966 9.83855 14.0544 10.1308C14.1523 10.1319 14.25 10.1395 14.3469 10.1535C15.3683 10.3668 15.8898 11.654 15.3068 12.52C15.0768 12.863 14.6875 12.9946 14.2954 12.8755C13.5905 12.6597 13.1145 12.1883 12.8816 11.5093C12.6977 10.9635 12.5589 10.4035 12.4664 9.83499C12.3522 9.18432 12.2832 8.52651 12.2599 7.86631C12.2457 7.3576 12.3665 6.85637 12.9296 6.60788C12.5894 6.32954 12.2325 6.15641 11.8148 6.33345C11.3427 6.53394 11.1433 6.95057 11.1038 7.42977C11.0274 8.38781 11.1863 9.32522 11.4341 10.2466C11.5916 10.8339 11.7917 11.4094 11.9431 11.9978C12.0373 12.3636 12.0953 12.7443 11.9211 13.1122C11.7355 13.5033 11.4234 13.665 10.9968 13.6078L10.919 13.5978C10.6051 13.5623 10.2542 13.5594 9.9748 13.7599C9.77609 13.6888 9.55746 13.622 9.34879 13.5328C9.15602 13.4478 8.94807 13.4027 8.73742 13.4002C8.52678 13.3977 8.31781 13.4378 8.12307 13.5182C7.70357 13.6789 7.3003 13.8791 6.91868 14.1161C6.43842 14.4233 5.9514 14.494 5.42564 14.3187C5.21235 14.2477 5.01399 14.141 4.80887 14.0528L4.75732 14.0884C4.92796 14.3536 5.08011 14.6323 5.27242 14.8808C5.56144 15.2551 5.95958 15.42 6.43558 15.4346C7.22974 15.4592 7.90872 15.1826 8.50771 14.6835C8.60287 14.5999 8.71444 14.537 8.83528 14.499C8.95611 14.461 9.08355 14.4487 9.20944 14.4627C9.23148 14.4645 9.25388 14.4677 9.27627 14.4716C9.29867 14.4755 9.31751 14.4784 9.33813 14.4826C9.39141 14.4939 9.44399 14.5083 9.49561 14.5256H9.49774C9.47286 14.6817 9.43375 14.8363 9.42664 14.9935C9.39892 15.5512 9.47819 16.0791 9.99542 16.4104C10.3683 16.649 10.7825 16.6923 11.1685 16.451C11.5261 16.227 11.5663 15.8484 11.502 15.4712C11.4607 15.2277 11.3623 14.9938 11.2905 14.7603C11.9215 14.7738 12.5436 14.7322 12.8759 14.045C13.8357 14.6899 15.0337 14.5783 15.8471 13.7645C16.4148 13.1958 16.5296 12.4887 16.4425 11.7287ZM11.0907 15.8093C10.9979 15.9263 10.8457 15.9067 10.7142 15.8285C10.4337 15.6607 10.2684 15.2892 10.3331 14.916C10.5464 15.0109 10.7597 15.088 10.9563 15.2004C11.0498 15.254 11.1486 15.3628 11.1696 15.4631C11.1898 15.5844 11.1614 15.7087 11.0907 15.8093Z" fill="white"/>
<path d="M8.59001 8.46884C8.56513 9.05077 8.50469 9.49975 8.2619 9.90785C7.71409 10.8307 6.64407 10.9178 5.95763 10.097C5.42653 9.46207 5.28825 8.23457 5.664 7.49516C5.9882 6.85777 6.55023 6.53179 7.22281 6.5908C7.77061 6.63879 8.28927 7.11372 8.46346 7.75644C8.53597 8.0259 8.56228 8.30674 8.59001 8.46884Z" fill="url(#paint1_linear_7098_10857)"/>
<path d="M10.3348 14.918C10.5481 15.0129 10.7614 15.09 10.958 15.2024C11.0514 15.2557 11.1499 15.3652 11.1712 15.4647C11.1916 15.5861 11.1635 15.7107 11.093 15.8117C10.9999 15.929 10.8481 15.9094 10.7166 15.8312C10.4354 15.6627 10.2701 15.2912 10.3348 14.918Z" fill="url(#paint2_linear_7098_10857)"/>
<defs>
<linearGradient id="paint0_linear_7098_10857" x1="-2.62295" y1="0.482274" x2="23.9012" y2="19.9438" gradientUnits="userSpaceOnUse">
<stop stop-color="#FFB725"/>
<stop offset="1" stop-color="#F7912A"/>
</linearGradient>
<linearGradient id="paint1_linear_7098_10857" x1="5.04007" y1="6.68221" x2="9.89221" y2="9.42521" gradientUnits="userSpaceOnUse">
<stop stop-color="#FFB725"/>
<stop offset="1" stop-color="#F7912A"/>
</linearGradient>
<linearGradient id="paint2_linear_7098_10857" x1="10.2084" y1="14.9415" x2="11.444" y2="15.7374" gradientUnits="userSpaceOnUse">
<stop stop-color="#FFB725"/>
<stop offset="1" stop-color="#F7912A"/>
</linearGradient>
</defs>
</svg>
