<svg width="23" height="18" viewBox="0 0 23 18" fill="none" xmlns="http://www.w3.org/2000/svg">
<path d="M0 5.4629C0.18119 4.86497 0.616045 4.55694 1.17773 4.30328C4.05865 2.9987 6.93956 1.67601 9.82047 0.353322C10.8351 -0.117774 11.8498 -0.117774 12.8645 0.353322C15.836 1.71225 18.8075 3.07118 21.7971 4.43011C22.3769 4.70189 22.703 5.11863 22.703 5.77092C22.703 6.4232 22.3588 6.83994 21.779 7.11173C18.8256 8.47066 15.8541 9.81147 12.9007 11.1704C11.8679 11.6415 10.8351 11.6415 9.80235 11.1523C6.8852 9.81147 3.96805 8.47066 1.0509 7.16609C0.52545 6.93054 0.18119 6.58628 0.018119 6.0427C6.89179e-08 5.8434 0 5.6622 0 5.4629Z" fill="#34C759"/>
<path d="M18.4447 10.1914C18.4447 10.4088 18.4447 10.59 18.4447 10.7893C18.4447 11.6047 18.4447 12.4201 18.4447 13.2354C18.4265 14.4675 17.8648 15.3553 16.7596 15.8808C15.5094 16.4787 14.1867 16.823 12.8278 16.9861C10.4542 17.2578 8.17121 16.8955 5.99693 15.8989C4.87356 15.3916 4.29375 14.5037 4.27563 13.2535C4.25751 12.257 4.27563 11.2423 4.27563 10.2095C4.36623 10.2458 4.42058 10.2639 4.49306 10.3001C6.06941 11.0249 7.62764 11.7315 9.18587 12.4563C10.6354 13.1267 12.0849 13.1267 13.5525 12.4563C15.1108 11.7315 16.6871 11.0249 18.2635 10.3001C18.2997 10.2458 18.3541 10.2095 18.4447 10.1914Z" fill="#34C759"/>
<path d="M21.2727 8.86914C21.2727 8.95974 21.2727 9.03221 21.2727 9.10469C21.2727 10.5361 21.2727 11.9856 21.2727 13.417C21.2727 13.8881 20.9827 14.1961 20.5479 14.1961C20.1312 14.1961 19.8594 13.87 19.8594 13.417C19.8594 12.1849 19.8594 10.9528 19.8594 9.72074C19.8594 9.57578 19.8956 9.50331 20.0406 9.44895C20.4392 9.26776 20.8378 9.06845 21.2727 8.86914Z" fill="#34C759"/>
</svg>
