<svg width="54" height="50" viewBox="0 0 54 50" fill="none" xmlns="http://www.w3.org/2000/svg">
<path d="M18.021 21.4805C24.0258 21.4805 29.9956 21.4805 36.0004 21.4805C36.0004 21.5505 36.0004 21.6381 36.0004 21.7081C36.0004 24.9827 36.0004 28.2572 36.0004 31.5318C36.0004 32.4774 35.3702 33.2129 34.4423 33.3705C34.3022 33.388 34.1622 33.4055 34.0221 33.4055C29.2253 33.4055 24.4109 33.4055 19.6141 33.4055C18.6687 33.4055 18.0385 32.7926 18.021 31.847C18.021 31.5318 18.021 31.2341 18.021 30.9189C18.021 27.8545 18.021 24.7901 18.021 21.7081C18.021 21.6381 18.021 21.5505 18.021 21.4805ZM31.2561 23.5468C31.0285 23.5468 30.8184 23.5468 30.5908 23.5468C30.3107 23.5468 30.1356 23.7044 30.1356 23.967C30.1181 24.4398 30.1181 24.9301 30.1356 25.4029C30.1356 25.6656 30.3107 25.8232 30.5733 25.8232C31.046 25.8232 31.5187 25.8232 31.9914 25.8232C32.2715 25.8232 32.4115 25.6656 32.4115 25.3854C32.4115 24.9126 32.4115 24.4573 32.4115 23.9845C32.4115 23.7044 32.2189 23.5293 31.9563 23.5293C31.7113 23.5468 31.4837 23.5468 31.2561 23.5468ZM32.4115 29.7282C32.4115 29.5005 32.4115 29.2904 32.4115 29.0627C32.4115 28.7651 32.2365 28.5899 31.9388 28.5899C31.4837 28.5899 31.0285 28.5899 30.5908 28.5899C30.2932 28.5899 30.1356 28.7475 30.1356 29.0277C30.1181 29.483 30.1181 29.9558 30.1356 30.4111C30.1356 30.7088 30.3282 30.8489 30.6258 30.8664C31.0635 30.8664 31.5187 30.8664 31.9563 30.8664C32.2715 30.8664 32.4115 30.7088 32.429 30.3936C32.4115 30.1834 32.4115 29.9558 32.4115 29.7282ZM21.2072 24.6675C21.2072 24.8951 21.2072 25.1228 21.2072 25.3504C21.2072 25.6306 21.3648 25.8057 21.6449 25.8232C22.1001 25.8407 22.5552 25.8407 23.0104 25.8232C23.2905 25.8232 23.4656 25.6306 23.4831 25.3504C23.5006 24.8951 23.5006 24.4398 23.4831 23.9845C23.4831 23.7219 23.308 23.5468 23.0279 23.5468C22.5727 23.5468 22.1176 23.5468 21.6799 23.5468C21.3823 23.5468 21.2072 23.7219 21.2072 24.0196C21.2072 24.2472 21.2072 24.4573 21.2072 24.6675ZM21.2072 29.7282C21.2072 29.9558 21.2072 30.1659 21.2072 30.3936C21.2072 30.6913 21.3823 30.8839 21.6974 30.8839C22.1176 30.8839 22.5552 30.8839 22.9754 30.8839C23.2905 30.8839 23.4831 30.7088 23.5006 30.3936C23.5181 29.9383 23.5181 29.483 23.5006 29.0452C23.5006 28.7651 23.343 28.6075 23.0629 28.6075C22.6078 28.6075 22.1351 28.6075 21.6624 28.6075C21.3823 28.6075 21.2247 28.7826 21.2072 29.0627C21.2072 29.2729 21.2072 29.5005 21.2072 29.7282ZM26.7919 25.8232C27.0195 25.8232 27.247 25.8232 27.4746 25.8232C27.7722 25.8057 27.9123 25.6831 27.9123 25.3854C27.9123 24.9301 27.9123 24.4573 27.9123 24.0021C27.9123 23.7044 27.7372 23.5468 27.4396 23.5468C27.0019 23.5468 26.5468 23.5468 26.1091 23.5468C25.8115 23.5468 25.6364 23.7219 25.6364 24.0196C25.6364 24.4573 25.6364 24.9126 25.6364 25.3504C25.6364 25.6481 25.794 25.8057 26.0916 25.8232C26.3192 25.8407 26.5643 25.8232 26.7919 25.8232ZM26.7744 30.8839C27.0019 30.8839 27.212 30.8839 27.4396 30.8839C27.7547 30.8839 27.9123 30.7438 27.9123 30.4286C27.9123 29.9733 27.9123 29.518 27.9123 29.0627C27.9123 28.7651 27.7547 28.6075 27.4571 28.5899C27.0019 28.5899 26.5468 28.5899 26.0916 28.5899C25.794 28.5899 25.6189 28.7651 25.6189 29.0627C25.6189 29.5005 25.6189 29.9383 25.6189 30.3761C25.6189 30.6738 25.794 30.8489 26.1091 30.8664C26.3367 30.8839 26.5643 30.8839 26.7744 30.8839Z" fill="#FF9500"/>
<path d="M35.9259 20.2893C29.9386 20.2893 23.9863 20.2893 17.999 20.2893C17.999 20.1142 17.999 19.9566 17.999 19.799C17.999 19.2561 17.999 18.7133 17.999 18.1704C18.0165 17.4525 18.4367 16.8396 19.0494 16.6645C19.137 16.6295 19.2245 16.612 19.3295 16.612C19.9248 16.612 20.52 16.612 21.1327 16.612C21.1327 16.682 21.1502 16.752 21.1502 16.8396C21.1502 17.3299 21.1502 17.8377 21.1502 18.328C21.1502 18.5732 21.3078 18.7658 21.5529 18.8359C21.763 18.9059 22.0256 18.8359 22.1481 18.6257C22.2181 18.5207 22.2532 18.3806 22.2532 18.2405C22.2707 17.7677 22.2532 17.2949 22.2532 16.8221C22.2532 16.7521 22.2532 16.682 22.2532 16.612C25.2468 16.612 28.2229 16.612 31.2166 16.612C31.2166 16.682 31.2341 16.7345 31.2341 16.8046C31.2341 17.2949 31.2341 17.8027 31.2341 18.293C31.2341 18.5557 31.3917 18.7483 31.6368 18.8184C31.8468 18.8884 32.1094 18.8184 32.232 18.6257C32.302 18.5207 32.337 18.3806 32.337 18.2405C32.3545 17.7677 32.337 17.2949 32.337 16.8221C32.337 16.7521 32.337 16.682 32.337 16.5945C32.7922 16.5945 33.2299 16.5945 33.65 16.5945C33.9827 16.5945 34.3328 16.5769 34.6654 16.717C35.2782 16.9622 35.7508 17.3474 35.9084 18.0304C35.9084 18.0654 35.9259 18.1004 35.9259 18.1354C35.9259 18.8534 35.9259 19.5538 35.9259 20.2893Z" fill="#FF9500"/>
</svg>
