<svg width="30" height="30" viewBox="0 0 30 30" fill="none" xmlns="http://www.w3.org/2000/svg">
<path d="M3 11.4629C3.18119 10.865 3.61604 10.5569 4.17773 10.3033C7.05865 8.9987 9.93956 7.67601 12.8205 6.35332C13.8351 5.88223 14.8498 5.88223 15.8645 6.35332C18.836 7.71225 21.8075 9.07118 24.7971 10.4301C25.3769 10.7019 25.703 11.1186 25.703 11.7709C25.703 12.4232 25.3588 12.8399 24.779 13.1117C21.8256 14.4707 18.8541 15.8115 15.9007 17.1704C14.8679 17.6415 13.8351 17.6415 12.8024 17.1523C9.8852 15.8115 6.96805 14.4707 4.0509 13.1661C3.52545 12.9305 3.18119 12.5863 3.01812 12.0427C3 11.8434 3 11.6622 3 11.4629Z" fill="white"/>
<path d="M21.4447 16.1914C21.4447 16.4088 21.4447 16.59 21.4447 16.7893C21.4447 17.6047 21.4447 18.4201 21.4447 19.2354C21.4265 20.4675 20.8648 21.3553 19.7596 21.8808C18.5094 22.4787 17.1867 22.823 15.8278 22.9861C13.4542 23.2578 11.1712 22.8955 8.99693 21.8989C7.87356 21.3916 7.29375 20.5037 7.27563 19.2535C7.25751 18.257 7.27563 17.2423 7.27563 16.2095C7.36623 16.2458 7.42058 16.2639 7.49306 16.3001C9.06941 17.0249 10.6276 17.7315 12.1859 18.4563C13.6354 19.1267 15.0849 19.1267 16.5525 18.4563C18.1108 17.7315 19.6871 17.0249 21.2635 16.3001C21.2997 16.2458 21.3541 16.2095 21.4447 16.1914Z" fill="white"/>
<path d="M24.2727 14.8691C24.2727 14.9597 24.2727 15.0322 24.2727 15.1047C24.2727 16.5361 24.2727 17.9856 24.2727 19.417C24.2727 19.8881 23.9827 20.1961 23.5479 20.1961C23.1312 20.1961 22.8594 19.87 22.8594 19.417C22.8594 18.1849 22.8594 16.9528 22.8594 15.7207C22.8594 15.5758 22.8956 15.5033 23.0406 15.449C23.4392 15.2678 23.8378 15.0685 24.2727 14.8691Z" fill="white"/>
</svg>
