<svg width="11" height="14" viewBox="0 0 11 14" fill="none" xmlns="http://www.w3.org/2000/svg">
<path d="M0.17194 7.03123C0.233726 6.78408 0.295512 6.4628 0.369655 6.15387C0.406727 6.00558 0.443798 5.8573 0.468513 5.69665C0.48087 5.61015 0.48087 5.5113 0.468513 5.4248C0.382012 5.01701 0.283154 4.60922 0.184297 4.20144C0.122511 3.94194 0.196654 3.71951 0.39437 3.54651C0.7033 3.27465 1.02459 3.00279 1.33352 2.73093C1.40766 2.66915 1.46945 2.58265 1.50652 2.48379C1.67952 2.11308 1.84016 1.73 2.00081 1.34693C2.09967 1.11214 2.27267 0.963859 2.53217 0.939144C2.95231 0.902073 3.37246 0.865001 3.7926 0.82793C3.89146 0.815572 3.99032 0.790858 4.06446 0.74143C4.42282 0.531358 4.78118 0.321286 5.12718 0.111215C5.37433 -0.0370715 5.60912 -0.0370715 5.85626 0.111215C6.12812 0.271858 6.41233 0.420144 6.65948 0.605501C6.93134 0.803216 7.24027 0.852644 7.56156 0.877358C7.85813 0.889716 8.1547 0.926787 8.45128 0.951501C8.71078 0.976216 8.88378 1.1245 8.98264 1.35929C9.14328 1.73 9.29157 2.11308 9.46457 2.48379C9.514 2.58265 9.57578 2.6815 9.66228 2.75565C9.95886 3.0275 10.2554 3.28701 10.5644 3.54651C10.7868 3.73186 10.8733 3.96665 10.7991 4.25087C10.725 4.54744 10.6756 4.84401 10.5891 5.14058C10.5026 5.43715 10.5026 5.73372 10.5891 6.0303C10.6756 6.32687 10.725 6.6358 10.7991 6.93237C10.8733 7.21659 10.7868 7.43901 10.5644 7.62437C10.2554 7.89623 9.93414 8.16809 9.62521 8.43994C9.56343 8.50173 9.50164 8.57587 9.46457 8.66237C9.30393 9.03309 9.14328 9.41616 8.98264 9.78688C8.87142 10.0464 8.68606 10.1947 8.40185 10.2194C7.96935 10.2564 7.53684 10.2935 7.10434 10.3429C7.04255 10.3429 6.98077 10.3677 6.93134 10.4047C6.58534 10.6148 6.22698 10.8125 5.88098 11.0349C5.60912 11.2079 5.34961 11.2079 5.0654 11.0349C4.7194 10.8125 4.37339 10.6148 4.01504 10.4047C3.95325 10.3677 3.87911 10.3429 3.81732 10.3429C3.37246 10.2935 2.9276 10.2688 2.4951 10.2194C2.2356 10.1947 2.07495 10.0464 1.97609 9.81159C1.81545 9.42852 1.65481 9.04545 1.4818 8.66237C1.44473 8.57587 1.38295 8.50173 1.32116 8.43994C1.01223 8.16809 0.7033 7.89623 0.382013 7.62437C0.246083 7.43901 0.17194 7.29073 0.17194 7.03123ZM5.51026 1.89065C3.48367 1.89065 1.84016 3.52179 1.84016 5.54837C1.84016 7.57494 3.47132 9.21845 5.4979 9.21845C7.52449 9.21845 9.168 7.5873 9.18035 5.56072C9.18035 3.53415 7.5492 1.89065 5.51026 1.89065Z" fill="white"/>
<path d="M4.03988 11.0717C4.01517 11.1334 4.00281 11.1705 3.97809 11.1952C3.53323 11.9737 3.07602 12.7522 2.63116 13.5307C2.59409 13.5925 2.49523 13.6914 2.4458 13.679C2.37166 13.6667 2.29751 13.5802 2.26044 13.506C2.08744 13.1229 1.9268 12.7399 1.76615 12.3568C1.71672 12.2332 1.64258 12.1962 1.51901 12.2085C1.12358 12.2579 0.715789 12.3074 0.320358 12.3568C0.270929 12.3568 0.2215 12.3692 0.172071 12.3692C0.0237844 12.3692 -0.0380018 12.2703 0.0237843 12.1344C0.0361415 12.1097 0.0484988 12.0973 0.0484988 12.0849C0.456287 11.3682 0.876432 10.6515 1.28422 9.9348C1.29658 9.91008 1.32129 9.88537 1.34601 9.83594C1.37072 9.89772 1.39544 9.94715 1.42015 9.99658C1.64258 10.5156 2.05037 10.7874 2.6188 10.8245C2.97716 10.8492 3.33552 10.8739 3.69388 10.9234C3.81745 10.9234 3.92867 11.0099 4.03988 11.0717Z" fill="white"/>
<path d="M6.98096 11.0352C7.1416 10.9858 7.30224 10.924 7.46289 10.8993C7.84596 10.8499 8.22904 10.8252 8.61211 10.7757C9.09404 10.7139 9.39061 10.4174 9.58833 9.98486C9.61304 9.93543 9.63776 9.886 9.66247 9.82422C9.69955 9.87365 9.72426 9.91072 9.74897 9.94779C10.1568 10.6398 10.5522 11.3442 10.9476 12.0362C10.9847 12.0979 11.0218 12.2339 10.9847 12.2709C10.9353 12.3204 10.8241 12.3451 10.7376 12.3451C10.3298 12.308 9.92198 12.2462 9.51419 12.1968C9.3659 12.1721 9.29176 12.2215 9.22997 12.3698C9.06933 12.7652 8.89633 13.1607 8.72332 13.5561C8.69861 13.6179 8.62447 13.6797 8.57504 13.692C8.52561 13.692 8.43911 13.6426 8.41439 13.5808C7.93246 12.7652 7.46289 11.9497 6.99331 11.1341C6.99331 11.1217 6.99331 11.1094 6.98096 11.0352Z" fill="white"/>
<path d="M2.45809 5.56011C2.45809 3.87954 3.8421 2.49554 5.52268 2.50789C7.21562 2.50789 8.57491 3.8919 8.57491 5.57247C8.56256 7.2654 7.20326 8.62469 5.51032 8.61233C3.80503 8.59998 2.44573 7.24069 2.45809 5.56011Z" fill="white"/>
</svg>
