<svg width="15" height="12" viewBox="0 0 15 12" fill="none" xmlns="http://www.w3.org/2000/svg">
<path d="M0 3.60937C0.119713 3.21432 0.407023 3.0108 0.778133 2.84321C2.68156 1.98127 4.585 1.10735 6.48843 0.233442C7.15882 -0.077814 7.82921 -0.077814 8.4996 0.233442C10.4629 1.1313 12.4262 2.02915 14.4014 2.927C14.7845 3.10658 15 3.38192 15 3.81289C15 4.24386 14.7725 4.5192 14.3895 4.69877C12.4381 5.59662 10.4749 6.48251 8.52354 7.38036C7.84118 7.69162 7.15882 7.69162 6.47646 7.36839C4.54908 6.48251 2.62171 5.59662 0.694334 4.73468C0.347167 4.57906 0.119713 4.3516 0.0119713 3.99246C4.55343e-08 3.86077 0 3.74106 0 3.60937Z" fill="white"/>
<path d="M12.1877 6.73438C12.1877 6.87803 12.1877 6.99775 12.1877 7.12943C12.1877 7.66814 12.1877 8.20686 12.1877 8.74557C12.1757 9.55962 11.8046 10.1462 11.0743 10.4934C10.2483 10.8884 9.37441 11.1159 8.47656 11.2236C6.90832 11.4032 5.39994 11.1638 3.96339 10.5054C3.22117 10.1702 2.83809 9.58357 2.82612 8.75754C2.81415 8.09911 2.82612 7.42872 2.82612 6.74635C2.88598 6.77029 2.92189 6.78226 2.96978 6.8062C4.01128 7.28506 5.04081 7.75194 6.07034 8.2308C7.02804 8.67374 7.98574 8.67374 8.95541 8.2308C9.98494 7.75194 11.0264 7.28506 12.0679 6.8062C12.0919 6.77029 12.1278 6.74635 12.1877 6.73438Z" fill="white"/>
<path d="M14.0544 5.85938C14.0544 5.91923 14.0544 5.96712 14.0544 6.015C14.0544 6.96074 14.0544 7.91845 14.0544 8.86419C14.0544 9.17545 13.8628 9.37896 13.5755 9.37896C13.3002 9.37896 13.1206 9.16348 13.1206 8.86419C13.1206 8.05014 13.1206 7.23609 13.1206 6.42203C13.1206 6.32626 13.1445 6.27837 13.2403 6.24246C13.5037 6.12275 13.7671 5.99106 14.0544 5.85938Z" fill="white"/>
</svg>
