<svg width="71" height="73" viewBox="0 0 71 73" fill="none" xmlns="http://www.w3.org/2000/svg">
<g filter="url(#filter0_d_6686_32715)">
<path d="M65.281 28.4642C64.8165 28.2489 63.9214 28.5775 63.3945 28.9288C60.3239 30.9966 58.3864 33.7896 58.1031 37.5797C58.0181 38.7128 57.8312 39.8458 57.8199 40.9336C57.8429 41.4335 57.7067 41.9277 57.4308 42.3452C57.1548 42.7626 56.7535 43.0817 56.2846 43.2564C54.2213 44.2452 52.2382 45.393 50.353 46.6895C47.4184 48.7687 46.1551 51.9753 45.107 55.2725C44.8961 55.8158 44.656 56.3472 44.3875 56.8645C44.2232 56.3546 44.1212 56.213 44.1552 56.1053C45.4582 51.3294 47.5034 47.0408 52.1489 44.599C53.282 43.9872 54.415 43.2847 55.6274 42.7805C56.0793 42.6327 56.4706 42.3413 56.7416 41.9506C57.0126 41.5599 57.1485 41.0914 57.1287 40.6163C57.3723 37.2681 57.5423 33.8576 59.9047 31.0929C60.1167 30.737 60.1875 30.3145 60.103 29.9089C59.3495 25.1557 58.6753 20.3855 57.7179 15.6719C57.2768 13.7642 56.5368 11.9382 55.5254 10.2615C54.585 8.68658 52.5851 8.85654 51.7524 10.4881C51.4694 11.2082 51.391 11.9925 51.5257 12.7543C52.3189 18.7142 53.18 24.6401 54.0185 30.566C54.0262 30.863 53.9977 31.1598 53.9335 31.4498C53.5256 31.2459 53.4179 31.0533 53.367 30.8436C52.5172 24.8271 51.6712 18.8067 50.8289 12.7826C50.5705 10.3993 49.6915 8.1255 48.2795 6.18817C47.6224 5.33271 46.7839 4.73785 45.6055 5.15708C44.4272 5.57632 44.1382 6.57341 44.1666 7.64416C44.2045 8.76524 44.3218 9.88222 44.5178 10.9867C45.5999 17.5358 46.7046 24.0793 47.7867 30.6284C47.8151 30.9715 47.8151 31.3163 47.7867 31.6595H47.3674C47.2881 31.3252 47.1861 30.9909 47.1295 30.651C46.1815 25.0763 45.2373 19.4998 44.2969 13.9213C44.0646 12.5277 43.5944 11.287 42.2234 10.6185C40.9883 10.0293 39.8553 10.5335 39.8553 11.9271C39.8572 13.6038 40.0013 15.2773 40.2858 16.9296C41.0223 21.5469 41.8551 26.1471 42.6256 30.7587C42.6681 31.2866 42.6681 31.817 42.6256 32.345H42.1894C41.7928 30.0222 41.3849 27.6994 40.9883 25.3766C40.5767 22.933 40.1669 20.4893 39.759 18.0457C39.5664 16.856 38.8355 16.1365 37.6855 16.1535C36.5354 16.1705 36.2918 17.2299 36.2295 18.1873C36.1908 18.7959 36.2288 19.4069 36.3428 20.0059C36.6997 21.9831 37.1133 23.9716 37.4759 25.9205C38.0424 28.8155 38.6089 31.7161 37.8611 34.6621C35.5978 43.1672 35.7114 52.1303 38.1897 60.5753C38.3797 61.4259 38.3797 62.308 38.1897 63.1586C37.9517 64.507 37.5269 65.8157 37.1586 67.2207H55.5311C54.2847 64.1331 54.0921 62.2805 54.7493 59.3459C54.8588 58.8629 55.1234 58.4291 55.5028 58.1108C60.6015 54.0375 64.4086 49.2559 64.7485 42.3216C64.9524 38.2652 65.6266 34.2372 65.9949 30.1865C66.0458 29.5973 65.7116 28.6512 65.281 28.4642Z" fill="url(#paint0_linear_6686_32715)"/>
<path d="M32.9205 59.6955C35.028 52.3305 35.4699 44.824 33.589 37.3798C32.5807 33.3918 32.5807 29.2156 33.589 25.2276C34.1168 22.9509 34.4953 20.6421 34.7221 18.3159C34.8241 17.3698 34.5861 16.2594 33.2548 16.1518C32.2917 16.0725 31.3739 17.0639 31.1813 18.2366C30.4259 22.7122 29.6705 27.1822 28.9152 31.6465C28.8358 31.9106 28.7235 32.1638 28.5809 32.3999C28.4591 32.2822 28.3676 32.1367 28.3143 31.9759C28.2611 31.815 28.2476 31.6437 28.275 31.4765C28.9945 27.1425 29.7593 22.8199 30.4391 18.4463C30.7984 16.3333 31.0368 14.2016 31.153 12.0614C31.2153 10.5261 30.0199 9.9426 28.6376 10.6734C27.4082 11.3249 26.938 12.458 26.7057 13.761C25.7577 19.4264 24.8041 25.0917 23.8448 30.757C23.7682 31.0697 23.6639 31.3749 23.5332 31.6691C23.3962 31.5638 23.2884 31.4253 23.22 31.2667C23.1516 31.108 23.1248 30.9345 23.1423 30.7627C23.7088 27.3011 24.2753 23.8453 24.8418 20.3838C25.4764 16.3161 26.1562 12.2144 26.751 8.07305C26.9323 6.81535 26.751 5.55765 25.2554 5.11009C23.8731 4.69085 22.893 5.52932 22.4228 6.60573C21.5447 8.54327 20.6042 10.5715 20.253 12.611C19.2276 18.6219 18.4967 24.6611 17.6469 30.6833C17.5623 30.9663 17.4444 31.2383 17.2957 31.4935L16.8651 31.3632C17.1824 28.9837 17.477 26.5986 17.8169 24.2249C18.3834 20.1968 18.9896 16.1745 19.5561 12.1464C19.6684 11.5615 19.5634 10.9557 19.261 10.4425C18.9585 9.92941 18.4793 9.54419 17.9132 9.35908C16.6725 8.85486 15.7831 9.54603 15.2279 10.5431C14.5664 11.6154 14.0681 12.7801 13.7492 13.999C12.8201 18.4802 12.0497 22.9955 11.1999 27.4881C10.826 29.42 10.6333 31.2612 12.2479 32.7965C12.4176 33.021 12.5233 33.2873 12.5539 33.567C12.9504 35.6178 13.466 37.663 13.6869 39.7365C13.8512 41.3058 14.2535 42.3426 15.8681 43.0111C21.5333 45.3112 25.2101 49.4072 26.6321 55.4068C26.6902 55.7818 26.7223 56.1604 26.7284 56.5399L26.3261 56.6079C26.1392 56.0413 25.9466 55.4748 25.7596 54.9083C24.6606 51.5714 23.2499 48.4101 20.2246 46.3536C18.7013 45.268 17.0729 44.338 15.3638 43.5776C13.7039 42.8808 13.0977 41.9347 13.0977 40.1274C13.0411 35.8728 12.0157 31.9241 8.18594 29.3633C7.43246 28.8591 6.45237 28.6892 5.57992 28.3606C5.36464 29.2274 4.91708 30.1168 5.01339 30.9609C5.29665 34.7907 5.76687 38.5921 6.16344 42.3992C6.57134 46.331 7.56276 50.0531 10.3161 53.0387C11.9024 54.7383 13.6473 56.3076 15.2675 57.9845C15.7449 58.4544 16.0924 59.04 16.276 59.6841C16.9454 62.2289 16.6277 64.9327 15.3865 67.253H33.7477C33.4644 66.1539 33.2661 65.1512 32.9375 64.1937C32.448 62.7352 32.4421 61.1577 32.9205 59.6955Z" fill="url(#paint1_linear_6686_32715)"/>
</g>
<defs>
<filter id="filter0_d_6686_32715" x="4" y="2" width="67" height="68.2539" filterUnits="userSpaceOnUse" color-interpolation-filters="sRGB">
<feFlood flood-opacity="0" result="BackgroundImageFix"/>
<feColorMatrix in="SourceAlpha" type="matrix" values="0 0 0 0 0 0 0 0 0 0 0 0 0 0 0 0 0 0 127 0" result="hardAlpha"/>
<feOffset dx="2"/>
<feGaussianBlur stdDeviation="1.5"/>
<feComposite in2="hardAlpha" operator="out"/>
<feColorMatrix type="matrix" values="0 0 0 0 0 0 0 0 0 0 0 0 0 0 0 0 0 0 0.15 0"/>
<feBlend mode="normal" in2="BackgroundImageFix" result="effect1_dropShadow_6686_32715"/>
<feBlend mode="normal" in="SourceGraphic" in2="effect1_dropShadow_6686_32715" result="shape"/>
</filter>
<linearGradient id="paint0_linear_6686_32715" x1="32.3086" y1="6.51828" x2="86.3895" y2="25.5341" gradientUnits="userSpaceOnUse">
<stop stop-color="#FFB725"/>
<stop offset="1" stop-color="#F7912A"/>
</linearGradient>
<linearGradient id="paint1_linear_6686_32715" x1="1.09453" y1="6.5" x2="55.1769" y2="25.4966" gradientUnits="userSpaceOnUse">
<stop stop-color="#FFB725"/>
<stop offset="1" stop-color="#F7912A"/>
</linearGradient>
</defs>
</svg>
