<svg width="30" height="30" viewBox="0 0 30 30" fill="none" xmlns="http://www.w3.org/2000/svg">
<path d="M17.7263 6.03516C17.8379 6.06702 17.9334 6.09888 18.0449 6.13074C18.8255 6.38563 19.3831 7.10251 19.399 7.9309C19.4149 8.77522 19.399 9.60362 19.399 10.4479C19.399 10.8143 19.1123 11.1011 18.7618 11.1011C18.4113 11.1011 18.1246 10.8143 18.1246 10.432C18.1246 9.63548 18.1246 8.85488 18.1246 8.05835C18.1246 7.59636 17.8538 7.32554 17.3918 7.32554C14.9386 7.32554 12.5013 7.32554 10.048 7.32554C10.0002 7.32554 9.95244 7.32554 9.90465 7.32554C9.90465 7.34147 9.90465 7.34147 9.88872 7.3574C9.93651 7.38926 9.96837 7.40519 10.0162 7.43705C11.2109 8.12207 12.3898 8.82302 13.5845 9.4921C14.3014 9.9063 14.6518 10.5117 14.6518 11.3401C14.6518 14.0801 14.6518 16.8202 14.6518 19.5603C14.6518 19.6399 14.6518 19.7036 14.6518 19.7992C14.7315 19.7992 14.7952 19.8151 14.843 19.8151C15.6714 19.8151 16.5157 19.8151 17.344 19.8151C17.8697 19.8151 18.1246 19.5603 18.1246 19.0345C18.1246 18.3655 18.1246 17.7123 18.1246 17.0432C18.1246 16.629 18.3954 16.3423 18.7618 16.3423C19.1282 16.3423 19.4149 16.645 19.4149 17.0591C19.4149 17.7282 19.4149 18.3814 19.4149 19.0505C19.4149 20.2612 18.5706 21.1055 17.3599 21.1055C16.5316 21.1055 15.6873 21.1055 14.8589 21.1055C14.7952 21.1055 14.7155 21.1055 14.6359 21.1055C14.6359 21.4082 14.6359 21.679 14.6359 21.9499C14.62 23.0013 13.9828 23.75 12.9473 23.9412C12.4853 24.0208 12.0552 23.9093 11.657 23.6704C10.3507 22.9216 9.04443 22.1569 7.73816 21.4082C7.40362 21.217 7.13281 20.9462 6.95758 20.6117C6.81421 20.3249 6.75049 20.0222 6.75049 19.7036C6.75049 15.8166 6.75049 11.9295 6.75049 8.04241C6.75049 7.05472 7.38769 6.29005 8.35943 6.08295C8.37536 6.08295 8.40722 6.06702 8.42315 6.05109C11.5136 6.03516 14.62 6.03516 17.7263 6.03516Z" fill="#485066"/>
<path d="M21.0017 13.3329C20.7787 13.1099 20.5397 12.8868 20.3326 12.6638C20.0459 12.3611 20.0937 11.8832 20.4441 11.6761C20.699 11.5168 21.0017 11.5327 21.2247 11.7558C21.846 12.3611 22.4673 12.9824 23.0726 13.6037C23.3116 13.8586 23.3116 14.225 23.0567 14.4799C22.4513 15.1012 21.846 15.7066 21.2247 16.3119C20.9698 16.5509 20.5875 16.5509 20.3485 16.3119C20.0937 16.073 20.0777 15.6747 20.3326 15.4198C20.5556 15.1808 20.7946 14.9737 21.0176 14.7507C21.0176 14.7348 21.0017 14.7189 21.0017 14.7029C20.938 14.7029 20.8742 14.7029 20.8105 14.7029C19.345 14.7029 17.8794 14.7029 16.4138 14.7029C15.9359 14.7029 15.6332 14.3684 15.7129 13.9383C15.7607 13.6356 16.0156 13.4285 16.3501 13.4285C17.1625 13.4285 17.975 13.4285 18.7874 13.4285C19.4883 13.4285 20.1733 13.4285 20.8742 13.4285C20.922 13.4285 20.9858 13.4285 21.0335 13.4285C20.9858 13.3648 20.9858 13.3488 21.0017 13.3329Z" fill="#485066"/>
</svg>
