<svg width="165" height="39" viewBox="0 0 165 39" fill="none" xmlns="http://www.w3.org/2000/svg">
<g clip-path="url(#clip0_7106_29977)">
<path d="M9.91394 27.3373V19.3005C9.91394 18.3033 9.62063 17.482 8.97535 16.8954C8.38872 16.2501 7.56745 15.9568 6.68751 15.9568C5.80758 15.9568 4.9863 16.2501 4.39968 16.8954C3.81306 17.5406 3.46108 18.3619 3.46108 19.3005V27.2786C3.46108 27.7479 3.28509 28.1585 2.93312 28.5105C2.58115 28.8625 2.17051 29.0385 1.70121 29.0385C1.23191 29.0385 0.821274 28.8625 0.469299 28.5105C0.175987 28.2172 0 27.8066 0 27.3373V14.6075C0 14.1382 0.175987 13.7276 0.527961 13.3756C0.879936 13.0236 1.29057 12.8477 1.75987 12.8477C2.22917 12.8477 2.63981 13.0236 2.99178 13.3756C3.34376 13.7276 3.51974 14.1382 3.51974 14.6075V14.7249C4.69299 13.4929 6.10089 12.9063 7.8021 12.9063C8.79936 12.9063 9.67929 13.141 10.5006 13.5516C11.3218 14.0209 12.0258 14.6075 12.5538 15.3701C14.0203 13.7276 15.7215 12.8477 17.7747 12.8477C19.4173 12.8477 20.7665 13.3756 21.8224 14.4315C22.8783 15.4875 23.4063 16.8954 23.4063 18.6552V27.2786C23.4063 27.7479 23.2303 28.1585 22.8783 28.5105C22.5264 28.8625 22.1157 29.0385 21.6464 29.0385C21.1771 29.0385 20.7665 28.8625 20.4145 28.5105C20.0625 28.1585 19.8866 27.7479 19.8866 27.2786V19.3005C19.8866 18.3033 19.5932 17.482 18.948 16.8954C18.3027 16.2501 17.5401 15.9568 16.6601 15.9568C15.7802 15.9568 14.9589 16.2501 14.3723 16.8954C13.727 17.5406 13.4337 18.3619 13.4337 19.3005V27.2786C13.4337 27.7479 13.2577 28.1585 12.9057 28.5105C12.5538 28.8625 12.1431 29.0385 11.6738 29.0385C11.2045 29.0385 10.7939 28.8625 10.4419 28.5105C10.0899 28.2172 9.91394 27.8066 9.91394 27.3373Z" fill="#029385"/>
<path d="M26.8672 14.6075C26.8672 14.0795 27.0432 13.6689 27.3365 13.3755C27.6298 13.0822 28.0404 12.9062 28.5684 12.9062C29.3897 12.9062 29.9176 13.2582 30.2109 14.0795L33.9067 24.1694L37.7784 14.2555C38.1304 13.3755 38.6583 12.9649 39.4209 12.9649C39.8902 12.9649 40.3009 13.1409 40.6529 13.4342C41.0048 13.7275 41.1808 14.1968 41.1808 14.6661C41.1808 14.8421 41.1221 15.0181 41.0635 15.1941L32.3228 37.1925C32.0295 37.9551 31.4429 38.3657 30.6216 38.3657C30.0936 38.3657 29.683 38.1897 29.3897 37.8964C29.0964 37.5445 28.9204 37.1338 28.9204 36.6645C28.9204 36.4299 28.979 36.1366 29.0964 35.8432L32.1468 28.1585L27.0432 15.4287C26.9258 15.0768 26.8672 14.7834 26.8672 14.6075Z" fill="#029385"/>
<path d="M43.293 9.26793H39.6559C39.128 9.26793 38.7173 9.09194 38.3654 8.73997C38.0134 8.38799 37.8374 7.97736 37.8374 7.44939C37.8374 6.92143 38.0134 6.5108 38.3654 6.15882C38.7173 5.80685 39.128 5.63086 39.6559 5.63086H50.6845C51.2124 5.63086 51.6231 5.80685 51.975 6.15882C52.327 6.5108 52.503 6.92143 52.503 7.44939C52.503 7.97736 52.327 8.38799 51.975 8.73997C51.6231 9.09194 51.2124 9.26793 50.6845 9.26793H47.0474V27.16C47.0474 27.6879 46.8714 28.1572 46.5194 28.5092C46.1675 28.8612 45.6982 29.0372 45.1702 29.0372C44.6422 29.0372 44.1729 28.8612 43.821 28.5092C43.469 28.1572 43.293 27.6879 43.293 27.16V9.26793Z" fill="#029385"/>
<path d="M63.9423 27.3353V27.218C62.7691 28.4499 61.3612 29.0365 59.6013 29.0365C58.0174 29.0365 56.6682 28.5086 55.6123 27.4526C54.5564 26.3967 53.9697 25.0475 53.9697 23.2876V14.6056C53.9697 14.1363 54.1457 13.7256 54.4977 13.3737C54.8497 13.0217 55.2603 12.8457 55.7296 12.8457C56.1989 12.8457 56.6095 13.0217 56.9615 13.3737C57.3135 13.7256 57.4895 14.1363 57.4895 14.6056V22.5837C57.4895 23.5809 57.7828 24.4022 58.4281 24.9888C59.0734 25.6341 59.836 25.9274 60.7159 25.9274C61.5958 25.9274 62.3584 25.6341 63.0037 24.9888C63.649 24.3435 63.9423 23.5809 63.9423 22.6423V14.6056C63.9423 14.1363 64.1183 13.7256 64.4703 13.3737C64.8223 13.0217 65.2329 12.8457 65.7022 12.8457C66.1715 12.8457 66.5821 13.0217 66.9341 13.3737C67.2861 13.7256 67.4621 14.1363 67.4621 14.6056V27.2767C67.4621 27.746 67.2861 28.1566 66.9341 28.5086C66.5821 28.8605 66.1715 29.0365 65.7022 29.0365C65.2329 29.0365 64.8223 28.8605 64.4703 28.5086C64.1183 28.1566 63.9423 27.8046 63.9423 27.3353Z" fill="#029385"/>
<path d="M76.672 13.2574H79.2532C79.7225 13.2574 80.0744 13.4334 80.3678 13.7267C80.6611 14.0201 80.8371 14.4307 80.8371 14.8413C80.8371 15.252 80.6611 15.6626 80.3678 15.9559C80.0744 16.2492 79.6638 16.4252 79.2532 16.4252H76.672V27.2191C76.672 27.6884 76.496 28.099 76.1441 28.451C75.7921 28.803 75.3815 28.979 74.9122 28.979C74.4429 28.979 74.0322 28.803 73.6802 28.451C73.3283 28.099 73.1523 27.6884 73.1523 27.2191V16.4839H71.8617C71.3924 16.4839 71.0404 16.3079 70.7471 16.0146C70.4538 15.7213 70.2778 15.3106 70.2778 14.9C70.2778 14.4894 70.4538 14.0787 70.7471 13.7854C71.0404 13.4921 71.4511 13.3161 71.8617 13.3161H73.1523V10.3243C73.1523 9.85503 73.3283 9.44439 73.6802 9.09241C74.0322 8.74044 74.4429 8.56445 74.9122 8.56445C75.3815 8.56445 75.7921 8.74044 76.1441 9.09241C76.496 9.44439 76.672 9.85503 76.672 10.3243V13.2574Z" fill="#029385"/>
<path d="M85.0018 26.7486C83.3593 25.2234 82.5967 23.2875 82.5967 20.9997C82.5967 18.7119 83.4179 16.776 85.0018 15.2508C86.6444 13.7256 88.6389 12.9043 90.9854 12.9043C93.3319 12.9043 95.3264 13.6669 96.969 15.2508C98.6115 16.8347 99.3741 18.7119 99.3741 20.9997C99.3741 23.2875 98.5528 25.2234 96.969 26.7486C95.3851 28.2738 93.3319 29.0951 90.9854 29.0951C88.6389 29.0951 86.5857 28.2738 85.0018 26.7486ZM87.4657 17.48C86.5271 18.4186 86.0578 19.5918 86.0578 20.941C86.0578 22.2903 86.5271 23.5222 87.4657 24.4021C88.4043 25.3407 89.5775 25.81 90.9854 25.81C92.3933 25.81 93.5665 25.3407 94.5051 24.4021C95.4437 23.4635 95.913 22.2903 95.913 20.941C95.913 19.5918 95.4437 18.3599 94.5051 17.48C93.5665 16.5414 92.3933 16.0721 90.9854 16.0721C89.5775 16.0721 88.4043 16.5414 87.4657 17.48Z" fill="#029385"/>
<path d="M106.648 14.6056V14.9575C107.763 13.5497 109.112 12.9044 110.696 12.9044C111.165 12.9044 111.576 12.963 111.928 13.0217C112.338 13.0804 112.632 13.315 112.866 13.5497C113.101 13.843 113.218 14.1949 113.218 14.5469C113.218 15.0162 113.042 15.3682 112.749 15.6615C112.456 15.9548 112.045 16.1308 111.634 16.1308C111.576 16.1308 111.341 16.0721 110.989 16.0135C110.637 15.9548 110.285 15.8961 109.992 15.8961C108.995 15.8961 108.173 16.3068 107.587 17.0694C107 17.832 106.648 18.8293 106.648 19.9439V27.3353C106.648 27.8046 106.472 28.2153 106.12 28.5672C105.768 28.9192 105.358 29.0952 104.888 29.0952C104.419 29.0952 104.008 28.9192 103.656 28.5672C103.304 28.2153 103.128 27.8046 103.128 27.3353V14.6056C103.128 14.1363 103.304 13.7256 103.656 13.3737C104.008 13.0217 104.419 12.8457 104.888 12.8457C105.358 12.8457 105.768 13.0217 106.12 13.3737C106.472 13.7256 106.648 14.1363 106.648 14.6056Z" fill="#029385"/>
<path d="M78.6665 8.32955C81.1303 7.33229 83.4182 6.33503 85.706 5.39643C87.2899 4.75115 88.9324 4.0472 90.5163 3.40191C90.751 3.28459 91.1029 3.22592 91.3376 3.34325C95.2093 4.92713 99.081 6.51102 102.953 8.15356C103.011 8.15356 103.07 8.21223 103.187 8.32955C102.601 8.5642 102.073 8.85751 101.486 9.0335C100.958 9.20949 100.841 9.5028 100.9 10.0308C101.017 10.6174 101.076 11.204 101.134 11.8493C100.724 11.8493 100.43 11.908 100.078 11.908C100.02 11.204 99.9609 10.5001 99.8436 9.56146C98.4357 10.9107 97.1452 10.0894 95.8546 9.79611C92.1588 8.97484 88.4631 9.0335 84.8261 10.1481C84.0048 10.3827 83.4768 10.3241 82.8315 10.0308C81.541 9.5028 80.1917 8.97484 78.6665 8.32955Z" fill="#029385"/>
<path d="M85.1782 13.9603C85.1782 13.0217 85.1782 12.1418 85.1782 11.2618C85.1782 11.0858 85.4129 10.7925 85.5889 10.7925C89.1673 9.79526 92.8043 9.85392 96.3827 10.7925C96.5587 10.8512 96.7347 11.1445 96.7347 11.3205C96.7934 12.2004 96.7347 13.0804 96.7347 14.019C92.9217 11.0272 89.1086 11.0272 85.1782 13.9603Z" fill="#029385"/>
<path d="M101.251 12.2598C100.899 12.2598 100.547 12.3184 100.137 12.3184C100.137 13.433 100.078 14.5476 100.489 15.7208C101.31 15.3689 100.782 14.0196 101.897 13.961C101.662 13.3157 101.427 12.7877 101.251 12.2598Z" fill="#029385"/>
<path d="M136.918 19.8279C136.918 19.5346 136.977 19.2999 136.977 19.0066C136.977 14.4309 136.977 9.91392 136.977 5.33826C136.977 3.8717 138.15 2.9331 139.441 3.46106C140.203 3.81303 140.497 4.45832 140.497 5.27959C140.497 7.68475 140.497 10.0899 140.497 12.4364C140.497 12.7297 140.497 12.9644 140.555 13.2577C141.435 12.1431 142.433 11.2632 143.723 10.7352C146.774 9.44462 150.704 10.3246 153.226 12.9057C158.447 18.1853 156.042 26.9847 148.885 28.8619C146.304 29.5072 143.84 29.1552 141.553 27.7473C141.259 27.5713 140.966 27.3953 140.673 27.1607C140.497 27.9233 140.438 28.6859 140.262 29.3898C139.148 33.4962 135.51 36.1947 131.345 35.9014C127.122 35.6081 123.543 32.3816 123.015 28.2166C122.839 26.8674 122.898 25.4595 122.839 24.0516C122.839 22.3504 122.839 20.5905 122.839 18.8893C122.839 17.716 123.602 16.8947 124.599 16.8947C125.596 16.8947 126.3 17.6574 126.359 18.8893C126.359 21.5291 126.359 24.1689 126.359 26.8674C126.359 29.3898 128.002 31.5603 130.289 32.2056C133.575 33.1442 136.684 31.0324 136.977 27.63C137.094 26.2807 136.977 24.9315 136.977 23.4649M152.464 19.7692C152.523 16.4841 149.941 13.7856 146.656 13.727C143.371 13.6683 140.731 16.1908 140.555 19.2999C140.379 22.7023 143.019 25.6354 146.48 25.6354C149.765 25.6941 152.405 23.113 152.464 19.7692Z" fill="#029385"/>
<path d="M118.967 12.8466C120.141 12.1427 121.197 11.2041 122.487 10.7348C127.239 8.91625 132.46 12.084 133.457 17.305C133.633 18.2436 133.633 19.2408 133.692 20.2381C133.692 22.5259 133.692 24.8724 133.692 27.1603C133.692 28.3335 132.988 29.0961 131.932 29.0961C130.876 29.0961 130.231 28.3335 130.231 27.1603C130.231 24.5791 130.289 21.998 130.231 19.4755C130.231 18.5955 129.996 17.5983 129.644 16.777C128.705 14.4892 126.3 13.3746 123.719 13.9612C120.845 14.6065 119.026 16.8943 119.026 19.8275C119.026 22.2326 119.026 24.5791 119.026 26.9843C119.026 28.2748 118.381 29.0961 117.325 29.0961C116.21 29.0961 115.506 28.3335 115.506 26.9843C115.506 20.1208 115.506 13.3159 115.506 6.45243C115.506 6.0418 115.506 5.5725 115.565 5.16186C115.682 4.10594 116.445 3.46065 117.384 3.51931C118.322 3.57798 119.026 4.28192 119.026 5.33785C119.026 7.56702 119.026 9.79619 119.026 12.0254C118.967 12.3187 118.967 12.6706 118.967 12.8466Z" fill="#029385"/>
<path d="M148.592 8.97533C149.354 7.39145 150.117 5.86623 150.821 4.28234C150.938 3.98903 150.938 3.57839 150.821 3.34374C150.41 2.34648 150.586 1.29056 151.29 0.645273C152.053 -0.0586761 153.167 -0.176001 153.989 0.293298C154.869 0.82126 155.338 1.75986 155.103 2.75712C154.927 3.75438 154.106 4.45833 153.05 4.57565C152.639 4.63432 152.405 4.75164 152.229 5.10361C151.701 6.27686 151.056 7.45011 150.528 8.68202C150.234 9.32731 149.941 9.56196 149.296 9.20998C149.12 9.09266 148.885 9.09266 148.592 8.97533Z" fill="#029385"/>
<path d="M156.277 24.3455C156.512 23.8176 156.687 23.3483 156.863 22.8203C158.095 23.4069 159.21 23.9349 160.383 24.5215C160.794 24.6975 161.087 24.7562 161.498 24.5215C162.73 23.8176 164.255 24.4042 164.724 25.6948C165.194 26.9267 164.49 28.3346 163.258 28.7452C161.967 29.1559 160.559 28.3346 160.325 26.9267C160.266 26.4574 160.031 26.2227 159.621 26.0467C158.565 25.5188 157.45 24.9322 156.277 24.3455Z" fill="#029385"/>
<path d="M155.69 13.8444C156.805 13.4924 157.86 13.1991 158.916 12.8471C159.21 12.7298 159.503 12.4952 159.62 12.2018C160.148 11.2046 160.97 10.7353 162.025 10.794C162.964 10.8526 163.727 11.6152 163.961 12.6125C164.196 13.5511 163.727 14.5483 162.847 15.0176C161.967 15.5456 160.911 15.4869 160.148 14.7243C159.796 14.3724 159.503 14.3724 159.034 14.4897C158.388 14.7243 157.684 14.8417 157.039 15.135C156.511 15.311 156.218 15.2523 156.042 14.6657C156.042 14.4897 155.866 14.1964 155.69 13.8444Z" fill="#029385"/>
</g>
<defs>
<clipPath id="clip0_7106_29977">
<rect width="164.9" height="38.3652" fill="white"/>
</clipPath>
</defs>
</svg>
