<svg width="54" height="50" viewBox="0 0 54 50" fill="none" xmlns="http://www.w3.org/2000/svg">
<path d="M35.9583 17.0953C35.9583 19.8645 35.9583 22.6338 35.9583 25.403L35.9376 25.4237C35.7103 26.1676 35.2763 26.4776 34.5117 26.4776C32.7344 26.4776 30.9571 26.4776 29.1799 26.4776C28.2912 26.4776 27.7539 25.9196 27.7539 25.031C27.7539 22.5098 27.7539 19.9679 27.7539 17.4466C27.7539 17.3846 27.7539 17.3433 27.7539 17.2813C27.7746 16.558 28.3532 16 29.0765 16C30.9365 16 32.8171 16 34.677 16C34.987 16 35.2556 16.1033 35.483 16.2893C35.7309 16.496 35.8756 16.7853 35.9583 17.0953Z" fill="#FF3B30"/>
<path d="M25.1708 33.9581C23.1455 33.9581 21.1202 33.9581 19.1156 33.9581C19.095 33.9581 19.095 33.9374 19.0743 33.9374C18.3923 33.7514 18.041 33.2761 18.041 32.5735C18.041 30.0109 18.0617 27.4483 18.041 24.8857C18.041 24.1831 18.5577 23.4805 19.4463 23.4805C21.2649 23.4805 23.0835 23.4805 24.8814 23.4805C25.7081 23.4805 26.266 24.0384 26.266 24.8651C26.266 25.4851 26.266 26.105 26.266 26.725C26.266 28.6676 26.266 30.6309 26.266 32.5735C26.266 33.1521 26.0181 33.5654 25.5014 33.8341C25.3981 33.8754 25.2741 33.9167 25.1708 33.9581Z" fill="#FF3B30"/>
<path d="M28.8285 33.958C28.7872 33.9373 28.7459 33.9373 28.7252 33.9166C28.1672 33.7513 27.7539 33.2553 27.7539 32.656C27.7539 31.5194 27.7539 30.3828 27.7539 29.2668C27.7539 28.5435 28.3326 27.9855 29.0559 27.9648C30.9365 27.9648 32.8171 27.9648 34.6976 27.9648C35.297 27.9648 35.7929 28.3782 35.9583 28.9568C35.9583 28.9981 35.9789 29.0188 35.9996 29.0601C35.9996 30.3414 35.9996 31.602 35.9996 32.8833C35.8963 33.214 35.7516 33.524 35.4416 33.7306C35.2763 33.834 35.0903 33.896 34.9043 33.9786C32.8584 33.958 30.8331 33.958 28.8285 33.958Z" fill="#FF3B30"/>
<path d="M22.1332 16.0215C23.0631 16.0215 23.9724 16.0215 24.9024 16.0215C25.667 16.0215 26.2457 16.5795 26.2457 17.3441C26.2457 18.4394 26.2457 19.5554 26.2457 20.6506C26.2457 21.4153 25.667 21.9939 24.9024 21.9939C23.0425 21.9939 21.2032 21.9939 19.3433 21.9939C18.5786 21.9939 18.0207 21.4153 18 20.6506C18 19.5554 18 18.4394 18 17.3441C18 16.5795 18.558 16.0215 19.3226 16.0215C20.2939 16.0215 21.2032 16.0215 22.1332 16.0215Z" fill="#FF3B30"/>
</svg>
