<svg width="30" height="30" viewBox="0 0 30 30" fill="none" xmlns="http://www.w3.org/2000/svg">
<path d="M14.5933 25.3848C14.25 25.2649 13.8768 25.1748 13.5484 25.0101C12.7724 24.6059 12.2953 23.9632 12.0724 23.1266C12.0724 23.0967 12.0575 23.0818 12.0575 23.0519C12.0576 23.037 12.0576 23.0221 12.0576 22.9922C13.999 22.9947 15.9404 22.9971 17.9117 22.9996C17.8065 23.5371 17.567 23.9848 17.223 24.3727C16.7444 24.9097 16.1467 25.2374 15.4446 25.3411C15.4148 25.341 15.3849 25.3709 15.355 25.3708C15.1011 25.3854 14.8472 25.3851 14.5933 25.3848Z" fill="#FF3B30"/>
<path d="M14.9889 20.5763C12.8086 20.5735 10.6282 20.5707 8.44784 20.568C7.73101 20.567 7.17901 20.1333 7.03051 19.476C6.91174 18.9233 7.07662 18.4456 7.52511 18.0729C7.98856 17.6852 8.3625 17.2227 8.67678 16.7004C9.18564 15.8349 9.41084 14.8944 9.41212 13.8939C9.41315 13.0874 9.38432 12.2661 9.43015 11.4597C9.522 9.69766 10.3302 8.29493 11.7503 7.25138C12.4379 6.74452 13.2149 6.41697 14.0663 6.28365C14.1708 6.26885 14.2157 6.2241 14.2158 6.11957C14.2162 5.85076 14.2016 5.56701 14.2318 5.29824C14.2622 4.89507 14.621 4.59685 15.0242 4.6123C15.4274 4.61282 15.7705 4.91192 15.7999 5.30024C15.8145 5.53919 15.8291 5.77815 15.8139 6.01707C15.7987 6.21118 15.8584 6.27099 16.0674 6.331C18.4561 6.88658 19.9476 8.35197 20.4972 10.7421C20.5863 11.1304 20.6007 11.5486 20.6002 11.9518C20.6141 12.7582 20.5832 13.5646 20.6269 14.3711C20.6997 15.8347 21.2955 17.06 22.3845 18.047C22.7574 18.376 23.0108 18.7497 22.9952 19.2723C22.9643 20.0488 22.3513 20.6305 21.5449 20.6294C19.3496 20.5818 17.1693 20.5791 14.9889 20.5763Z" fill="#FF3B30"/>
</svg>
