<svg width="54" height="50" viewBox="0 0 54 50" fill="none" xmlns="http://www.w3.org/2000/svg">
<path d="M30.4539 13.4219C31.8885 14.8565 33.3231 16.2911 34.7408 17.7257C34.842 17.8269 34.9096 17.9788 34.9096 18.1138C34.9264 19.886 34.9096 21.6581 34.9096 23.4303C34.9096 23.4809 34.8927 23.5315 34.8927 23.599C29.6269 23.599 24.3779 23.599 19.0952 23.599C19.0952 23.5147 19.0952 23.4303 19.0952 23.3459C19.0952 20.1898 19.0952 17.0506 19.0952 13.8944C19.0952 13.6919 19.129 13.5231 19.3146 13.4219C23.0277 13.4219 26.7408 13.4219 30.4539 13.4219Z" fill="#00C7BE"/>
<path d="M27.0084 24.9492C30.0633 24.9492 33.135 24.9492 36.1899 24.9492C36.7468 24.9492 37 25.2024 37 25.7593C37 28.0716 37 30.3669 37 32.6791C37 33.2192 36.7468 33.4893 36.1899 33.4893C30.0633 33.4893 23.9367 33.4893 17.8101 33.4893C17.27 33.4893 17 33.2192 17 32.696C17 30.3838 17 28.0716 17 25.7593C17 25.2361 17.2532 24.9661 17.7932 24.9661C20.865 24.9492 23.9367 24.9492 27.0084 24.9492ZM25.3882 26.0631C23.7173 26.0631 22.384 27.3796 22.384 29.0505C22.3671 30.7045 23.7173 32.0547 25.3882 32.0547C27.0422 32.0547 28.3924 30.7382 28.3924 29.0842C28.3755 27.4133 27.0591 26.0631 25.3882 26.0631ZM33.557 29.7424C33.4219 30.2488 33.1181 30.5694 32.6962 30.6707C31.5823 30.9576 30.4684 29.8943 30.7046 28.7804C30.9409 27.599 32.1561 27.0589 33.2194 27.6665C33.6245 27.9028 34.0127 27.8184 34.2152 27.464C34.4177 27.1264 34.2827 26.7382 33.9114 26.502C33.3038 26.1138 32.6287 25.9788 31.9198 26.08C30.7384 26.2657 29.9114 26.9239 29.5063 28.0547C29.1013 29.1855 29.3376 30.2319 30.1477 31.1095C31.1603 32.2234 32.8987 32.3753 33.9958 31.4808C34.7384 30.8732 34.9916 30.0462 35.0253 29.118C35.0422 28.6623 34.7553 28.3754 34.2996 28.3754C33.8776 28.3754 33.4388 28.3754 33.0169 28.3754C32.5949 28.3754 32.2911 28.6623 32.2911 29.0505C32.2911 29.4218 32.5781 29.7087 33 29.7256C33.1688 29.7593 33.3544 29.7424 33.557 29.7424ZM18.9916 29.0673C18.9916 29.8268 18.9916 30.5863 18.9916 31.3458C18.9916 31.7846 19.2447 32.0547 19.6835 32.0547C20.2068 32.0547 20.7468 32.0547 21.27 32.0547C21.6582 32.0547 21.9451 31.7678 21.962 31.3964C21.962 31.0251 21.692 30.7382 21.2869 30.7213C21.0506 30.7045 20.8143 30.7045 20.5949 30.7213C20.3755 30.7382 20.3249 30.6538 20.3249 30.4344C20.3418 29.2361 20.3249 28.0547 20.3249 26.8564C20.3249 26.7382 20.3249 26.6032 20.2743 26.4851C20.173 26.1813 19.8692 26.0125 19.5316 26.0631C19.211 26.1138 18.9747 26.3669 18.9747 26.7045C18.9916 27.4977 18.9916 28.291 18.9916 29.0673Z" fill="#00C7BE"/>
<path d="M19.0952 34.8398C24.3779 34.8398 29.6269 34.8398 34.8758 34.8398C34.8927 34.8905 34.9096 34.9242 34.9096 34.9749C34.9096 35.3799 34.9096 35.7681 34.9096 36.1732C34.9096 36.477 34.7914 36.5782 34.4876 36.5782C34.4707 36.5782 34.437 36.5782 34.4201 36.5782C29.475 36.5782 24.5298 36.5782 19.5847 36.5782C19.1796 36.5782 19.0952 36.4938 19.0952 36.0888C19.0952 35.6837 19.0952 35.2618 19.0952 34.8398Z" fill="#00C7BE"/>
<path d="M27.027 29.083C27.027 29.9944 26.2675 30.737 25.3562 30.7201C24.4448 30.7201 23.7021 29.9606 23.7021 29.0661C23.7021 28.1716 24.4616 27.4121 25.3562 27.4121C26.2844 27.4121 27.0439 28.1547 27.027 29.083Z" fill="#00C7BE"/>
</svg>
