<svg width="30" height="36" viewBox="0 0 30 36" fill="none" xmlns="http://www.w3.org/2000/svg">
<rect x="5" width="20" height="9" rx="2" fill="#FF3B30"/>
<path d="M10.3892 4.68506H9.10742V3.94678H10.3892C10.5988 3.94678 10.7686 3.9126 10.8984 3.84424C11.0306 3.7736 11.1274 3.6779 11.189 3.55713C11.2505 3.43408 11.2812 3.29395 11.2812 3.13672C11.2812 2.98405 11.2505 2.84163 11.189 2.70947C11.1274 2.57731 11.0306 2.47021 10.8984 2.38818C10.7686 2.30615 10.5988 2.26514 10.3892 2.26514H9.41504V6.5H8.4751V1.52344H10.3892C10.7765 1.52344 11.1069 1.59294 11.3804 1.73193C11.6561 1.86865 11.8657 2.05892 12.0093 2.30273C12.1551 2.54427 12.228 2.81999 12.228 3.12988C12.228 3.45117 12.1551 3.72803 12.0093 3.96045C11.8657 4.19287 11.6561 4.37174 11.3804 4.49707C11.1069 4.6224 10.7765 4.68506 10.3892 4.68506ZM13.9062 1.52344V6.5H12.9663V1.52344H13.9062ZM16.8936 1.52344L14.8975 3.9502L13.7559 5.17041L13.5884 4.25781L14.3813 3.229L15.7417 1.52344H16.8936ZM15.8477 6.5L14.2993 4.16895L14.9727 3.56055L16.9653 6.5H15.8477ZM19.5391 1.52344V6.5H18.6025V1.52344H19.5391ZM21.084 1.52344V2.26514H17.0747V1.52344H21.084Z" fill="white"/>
<path d="M24.5048 24.0013C22.6915 21.5124 19.1714 21.619 17.3403 23.6102C15.598 25.5124 15.6514 28.7125 18.0336 30.508C16.7358 30.9347 15.4203 31.0769 14.0869 30.9525C11.438 30.6858 9.23351 29.5658 7.47348 27.5569C4.14899 23.7702 4.18454 18.1167 7.52681 14.3834C10.8869 10.6144 16.5047 9.90329 20.6115 12.7478C24.9137 15.6989 25.6782 20.7123 24.5048 24.0013ZM6.2468 20.8723C6.2468 23.0057 6.88681 24.8724 8.20238 26.508C9.19795 27.7347 10.4246 28.6236 11.918 29.1925C11.9002 29.0325 11.9002 28.9258 11.8824 28.8191C11.7935 27.7702 12.0602 26.828 12.8069 26.0458C13.0736 25.7613 13.3758 25.4946 13.6425 25.228C14.0691 24.8191 14.3002 24.3391 14.2469 23.7524C14.2291 23.5035 14.2114 23.2724 14.158 23.0235C13.9802 22.1346 13.6069 21.3346 12.9491 20.6768C12.2202 19.9657 11.3669 19.8946 10.5313 20.4812C10.3891 20.5879 10.2469 20.6946 10.1046 20.8012C9.76685 21.0679 9.44684 21.3524 9.0735 21.5835C8.32683 22.0635 7.58015 22.0279 6.88681 21.4768C6.69125 21.3168 6.49569 21.1035 6.2468 20.8723ZM16.1136 12.2856C16.0781 12.3567 16.0603 12.3922 16.0425 12.4456C15.8114 13.1389 15.6692 13.8678 15.7047 14.5967C15.7403 15.2545 15.9358 15.8589 16.3625 16.3745C16.8603 16.979 17.4647 17.1034 18.1403 16.7123C18.4248 16.5523 18.6736 16.3389 18.9581 16.1967C19.2603 16.0367 19.5803 15.8945 19.9181 15.8056C20.3626 15.6989 20.7892 15.8056 21.1803 16.0723C21.5715 16.3389 21.9981 16.4812 22.5493 16.4989C21.0381 14.1167 18.9225 12.7122 16.1136 12.2856Z" fill="#FF3B30"/>
<path d="M20.7651 23.1134C22.8096 23.1312 24.4096 24.7668 24.374 26.8468C24.3563 28.8202 22.6674 30.4202 20.6584 30.3846C18.7206 30.3491 17.1206 28.7135 17.1206 26.7401C17.1384 24.7312 18.774 23.0956 20.7651 23.1134ZM20.1607 25.8868C20.1607 26.1535 20.1429 26.4201 20.1607 26.6868C20.1784 26.8646 20.2495 27.0601 20.3562 27.1846C20.5873 27.469 20.854 27.7002 21.1207 27.9668C21.3873 28.2157 21.7429 28.2335 21.974 27.9846C22.2229 27.7357 22.2229 27.3802 21.9562 27.1135C21.7962 26.9535 21.6184 26.7935 21.4762 26.6157C21.4051 26.5446 21.3518 26.4201 21.3518 26.3312C21.334 25.9046 21.3518 25.4779 21.334 25.0512C21.3162 24.6957 21.0496 24.429 20.7295 24.4468C20.3918 24.4646 20.1429 24.7134 20.1429 25.0868C20.1606 25.3535 20.1607 25.6201 20.1607 25.8868Z" fill="#FF3B30"/>
</svg>
