<svg width="30" height="30" viewBox="0 0 30 30" fill="none" xmlns="http://www.w3.org/2000/svg">
<path d="M13.9934 15.6447C11.1564 15.6447 8.85986 13.3481 8.85986 10.4962C8.85986 7.64423 11.1564 5.34766 14.0234 5.34766C16.8603 5.34766 19.1569 7.65924 19.1569 10.5112C19.1419 13.3481 16.8453 15.6447 13.9934 15.6447Z" fill="#029385"/>
<path d="M13.6776 16.9373C12.0114 19.4591 12.5968 22.8364 14.8484 24.6376C14.7733 24.6376 14.7133 24.6526 14.6683 24.6526C12.1015 24.6526 9.53475 24.6526 6.96801 24.6526C5.85725 24.6526 5.00167 23.812 5.00167 22.7013C5.00167 22.0408 4.98666 21.3654 5.0467 20.7199C5.21181 18.9937 5.94731 17.5377 7.19316 16.3219C7.77856 15.7515 8.43901 15.3162 9.17451 14.971C9.29459 14.926 9.35463 14.926 9.44469 15.016C10.5705 16.1268 11.9064 16.7572 13.4824 16.8923C13.5275 16.8923 13.5575 16.9073 13.6025 16.9073C13.6175 16.9223 13.6325 16.9223 13.6776 16.9373Z" fill="#029385"/>
<path d="M13.9927 20.132C13.9927 17.6253 16.0191 15.6289 18.5258 15.6289C20.9874 15.6289 22.9988 17.6553 22.9988 20.102C22.9988 22.6537 20.9874 24.6351 18.4207 24.6351C15.989 24.6351 13.9927 22.5937 13.9927 20.132ZM17.8503 20.7924C17.8503 21.0026 17.8503 21.1827 17.8503 21.3628C17.8503 21.7831 18.1205 22.0833 18.4957 22.0833C18.871 22.0833 19.1262 21.7831 19.1412 21.3628C19.1412 21.1827 19.1412 20.9876 19.1412 20.8075C19.3663 20.8075 19.5465 20.8075 19.7266 20.8075C20.1319 20.8075 20.4321 20.5223 20.4171 20.162C20.4171 19.8018 20.1168 19.5316 19.7266 19.5316C19.5314 19.5316 19.3363 19.5316 19.1262 19.5316C19.1262 19.3214 19.1262 19.1263 19.1262 18.9312C19.1262 18.5409 18.856 18.2407 18.4807 18.2407C18.1055 18.2407 17.8353 18.5259 17.8353 18.9312C17.8353 19.1263 17.8353 19.3214 17.8353 19.5166C17.6251 19.5166 17.43 19.5166 17.2349 19.5166C16.8446 19.5166 16.5594 19.8018 16.5444 20.162C16.5444 20.5223 16.8296 20.7924 17.2199 20.8075C17.445 20.7924 17.6402 20.7924 17.8503 20.7924Z" fill="#029385"/>
</svg>
