<svg width="20" height="19" viewBox="0 0 20 19" fill="none" xmlns="http://www.w3.org/2000/svg">
<path d="M5.68876 13.5136C4.54619 13.5136 3.42017 13.5136 2.2776 13.5136C1.05224 13.5136 0.0752556 12.6194 0.0421375 11.4106C0.00901954 10.0031 -0.0406577 8.57903 0.0586963 7.17152C0.307081 3.61133 3.08899 0.647267 6.63262 0.150497C8.13949 -0.0647698 9.69604 -0.114446 11.1532 0.44856C13.6205 1.40898 15.0777 3.23047 15.4751 5.83024C15.9388 8.89365 14.2498 11.8246 11.4347 13.0168C10.6565 13.348 9.82851 13.5136 8.984 13.5136C7.87455 13.5136 6.78165 13.5136 5.68876 13.5136ZM8.07325 7.76764C9.81195 7.75108 11.1036 6.0455 10.6565 4.32337C10.2922 2.94897 8.93432 2.10446 7.54337 2.31973C6.28488 2.51844 5.25822 3.72724 5.27478 5.01885C5.27478 5.43282 5.57285 5.73088 5.97026 5.764C6.36768 5.79712 6.69886 5.51561 6.74853 5.1182C6.76509 5.0354 6.76509 4.95261 6.78165 4.86981C6.86445 4.17434 7.54337 3.67757 8.22229 3.79348C8.91776 3.90939 9.39797 4.62143 9.23238 5.30035C9.08335 5.87991 8.68594 6.19453 7.99046 6.27733C7.52681 6.32701 7.24531 6.64163 7.27842 7.0556C7.29498 7.48614 7.6096 7.76764 8.07325 7.76764ZM9.00056 10.0528C9.01712 9.50634 8.58658 9.04268 8.04014 9.02612C7.51025 9.00957 7.03004 9.4401 7.01348 9.98655C6.98036 10.5164 7.42745 10.9966 7.9739 11.0132C8.52035 11.0298 8.96744 10.6158 9.00056 10.0528Z" fill="#FF6633"/>
<path d="M5.55664 15.0213C5.75535 15.0213 5.87126 15.0213 6.00373 15.0213C6.93104 15.0213 7.84178 15.0213 8.76909 15.0213C11.1867 15.0047 13.24 14.1436 14.8794 12.3553C16.0882 11.0471 16.7836 9.50711 16.9824 7.7353C17.032 7.25509 17.032 6.75832 17.0651 6.19531C17.4129 6.54305 17.7606 6.84111 18.0587 7.18885C19.3503 8.67916 19.9961 10.4344 19.9961 12.4049C19.9961 13.5972 20.0127 14.7729 19.9795 15.9651C19.9464 17.0746 18.9529 17.9853 17.8269 18.0019C15.5086 18.0019 13.1738 18.0516 10.8555 17.9853C8.62006 17.9356 6.89792 16.8593 5.55664 15.0213Z" fill="#FF6633"/>
</svg>
