<svg width="21" height="15" viewBox="0 0 21 15" fill="none" xmlns="http://www.w3.org/2000/svg">
<path d="M3.64022 11.0765L0 7.43804H2.67811C2.92226 3.98525 4.56388 1.55328 7.8546 0.393698C10.017 -0.367543 12.1029 0.030299 14.106 1.11351C14.0561 1.17191 14.0251 1.21334 13.9892 1.24928C13.6043 1.63514 13.2163 2.01801 12.8349 2.40637C12.7575 2.48524 12.6941 2.50121 12.5927 2.45229C11.8499 2.09057 11.0382 1.8921 10.2122 1.87025C9.41216 1.84629 8.61742 2.00757 7.89005 2.34147C6.40121 3.02285 5.38219 4.141 4.84747 5.69143C4.65717 6.2518 4.56298 6.84029 4.56887 7.43205H7.28593L3.64022 11.0765Z" fill="white"/>
<path d="M15.694 7.4385H13.0149L16.6416 3.8125L20.2579 7.42702H17.5843C17.3386 10.8803 15.6945 13.3138 12.4053 14.4704C10.2434 15.2321 8.15794 14.8328 6.12988 13.7346C6.28865 13.5848 6.42445 13.4585 6.55526 13.3293C6.84335 13.0442 7.13243 12.7602 7.41352 12.4682C7.50189 12.3763 7.57628 12.3634 7.68962 12.4183C8.43823 12.784 9.25803 12.981 10.0911 12.9953C10.8781 13.0124 11.6585 12.8501 12.3733 12.5206C13.8622 11.8377 14.8802 10.7196 15.4149 9.16964C15.6031 8.61201 15.6975 8.02701 15.694 7.4385Z" fill="white"/>
</svg>
