<svg width="19" height="19" viewBox="0 0 19 19" fill="none" xmlns="http://www.w3.org/2000/svg">
<path d="M14.4587 4.48607C14.4737 6.82854 13.1073 8.72054 11.1704 9.27612C8.99315 9.90679 6.74087 8.79562 5.82494 6.66337C4.84895 4.41099 5.71983 1.73818 7.79193 0.566942C10.1043 -0.739435 12.9872 0.296657 14.0533 2.8043C14.3386 3.40493 14.4587 4.05061 14.4587 4.48607Z" fill="#FF2D55"/>
<path d="M10.0152 11.4228C10.7509 10.8522 11.4716 10.2816 12.1924 9.71102C12.2524 9.66597 12.3725 9.63594 12.4476 9.65096C14.1143 10.0864 15.6759 10.7471 16.9972 11.8733C18.0033 12.7292 18.709 13.7653 18.9492 15.0867C18.9943 15.342 19.0543 15.5822 18.9042 15.8525C18.5588 15.1167 18.0033 14.6512 17.2075 14.4861C17.2075 13.9455 17.2075 13.4199 17.2075 12.8343C16.8771 12.8493 16.5768 12.8643 16.2615 12.8944C15.2104 13.0145 14.1894 13.2247 13.2284 13.6752C13.0032 13.7803 12.793 13.9004 12.5677 14.0055C12.4326 14.0806 12.3725 14.1707 12.3876 14.3359C12.4026 15.6573 12.4176 16.9637 12.4176 18.2851C12.4176 18.3601 12.4176 18.4502 12.4176 18.5403C12.2224 18.5403 12.0422 18.5403 11.847 18.5403C11.847 18.4652 11.847 18.3902 11.847 18.3151C11.832 16.9787 11.832 15.6573 11.817 14.3209C11.817 14.1707 11.7719 14.0806 11.6368 14.0055C10.6758 13.4349 9.60975 13.1346 8.51363 12.9695C8.03315 12.8944 7.53764 12.8643 7.01211 12.8043C7.01211 14.6662 7.01211 16.4681 7.01211 18.2851C6.12621 18.27 3.61867 17.6093 3.07812 17.279C4.71478 16.8886 5.24031 15.372 4.84992 14.2458C4.44451 13.1046 3.09314 12.2787 1.5766 12.9695C1.05107 11.0925 0.525533 9.2155 0 7.3235C0.270274 7.24842 0.510518 7.18836 0.780792 7.11328C1.29131 8.91518 1.80183 10.7021 2.31235 12.519C2.40244 12.4289 2.4625 12.3538 2.52256 12.2937C3.49855 11.3027 4.68475 10.627 5.97606 10.1315C6.45655 9.95127 6.95205 9.81613 7.43254 9.65096C7.59771 9.59089 7.71783 9.62092 7.85296 9.74105C8.51363 10.2816 9.18932 10.8072 9.865 11.3327C9.94008 11.3778 9.97011 11.3928 10.0152 11.4228Z" fill="#FF2D55"/>
<path d="M16.7857 14.9983C17.7166 14.9832 18.5124 15.7791 18.5274 16.7251C18.5425 17.6561 17.7617 18.4519 16.8307 18.4669C15.8848 18.4819 15.089 17.7011 15.0739 16.7701C15.0589 15.7941 15.8247 15.0133 16.7857 14.9983Z" fill="#FF2D55"/>
<path d="M2.63886 13.2852C3.62986 13.3002 4.42567 14.066 4.42567 15.027C4.42567 15.973 3.64488 16.7388 2.69892 16.7238C1.75296 16.7238 0.972168 15.9279 0.972168 14.9669C0.987183 14.0059 1.73794 13.3152 2.63886 13.2852Z" fill="#FF2D55"/>
</svg>
