<svg width="30" height="30" viewBox="0 0 30 30" fill="none" xmlns="http://www.w3.org/2000/svg">
<path fill-rule="evenodd" clip-rule="evenodd" d="M20.8766 15.9053C20.9136 15.6092 20.9414 15.3132 20.9414 14.9986C20.9414 14.684 20.9136 14.3879 20.8766 14.0918L22.8289 12.5652C23.0047 12.4264 23.051 12.1766 22.9399 11.973L21.0894 8.77165C20.9784 8.5681 20.7286 8.49408 20.525 8.5681L18.2212 9.49335C17.74 9.12325 17.2219 8.81792 16.6575 8.5866L16.3059 6.1347C16.2782 5.91264 16.0839 5.74609 15.8525 5.74609H12.1515C11.9202 5.74609 11.7259 5.91264 11.6982 6.1347L11.3466 8.5866C10.7822 8.81792 10.264 9.1325 9.78291 9.49335L7.47905 8.5681C7.26624 8.48483 7.02567 8.5681 6.91464 8.77165L5.06415 11.973C4.94387 12.1766 4.99938 12.4264 5.17518 12.5652L7.12745 14.0918C7.09044 14.3879 7.06268 14.6932 7.06268 14.9986C7.06268 15.3039 7.09044 15.6092 7.12745 15.9053L5.17518 17.432C4.99938 17.5708 4.95312 17.8206 5.06415 18.0241L6.91464 21.2255C7.02567 21.429 7.27549 21.5031 7.47905 21.429L9.78291 20.5038C10.264 20.8739 10.7822 21.1792 11.3466 21.4105L11.6982 23.8624C11.7259 24.0845 11.9202 24.2511 12.1515 24.2511H15.8525C16.0839 24.2511 16.2782 24.0845 16.3059 23.8624L16.6575 21.4105C17.2219 21.1792 17.74 20.8646 18.2212 20.5038L20.525 21.429C20.7378 21.5123 20.9784 21.429 21.0894 21.2255L22.9399 18.0241C23.051 17.8206 23.0047 17.5708 22.8289 17.432L20.8766 15.9053ZM14.0021 18.2373C12.2164 18.2373 10.7638 16.7847 10.7638 14.999C10.7638 13.2132 12.2164 11.7606 14.0021 11.7606C15.7879 11.7606 17.2405 13.2132 17.2405 14.999C17.2405 16.7847 15.7879 18.2373 14.0021 18.2373Z" fill="#FFCB33"/>
</svg>
