<svg width="15" height="19" viewBox="0 0 15 19" fill="none" xmlns="http://www.w3.org/2000/svg">
<path d="M14.2049 15.3816C14.2049 16.1134 14.2049 16.8317 14.2049 17.5635C14.2712 17.577 14.3242 17.577 14.3772 17.5906C14.735 17.6312 15 17.9429 15 18.3088C15 18.6883 14.7085 18.9864 14.3375 19C14.2845 19 14.2314 19 14.1784 19C10.3092 19 6.43993 18.9864 2.55742 19C1.29859 19 0.331272 18.1462 0.0795051 17.0892C0.0265016 16.8588 0 16.6148 0 16.3709C0 11.7903 0 7.2097 0 2.61555C0 1.28745 0.821555 0.284593 2.09364 0.0406561C2.25265 0.013552 2.41166 0.0135519 2.57067 0.0135519C6.43993 0.0135519 10.2959 0.0135521 14.1652 0C14.682 0 15 0.32525 15 0.85378C14.9867 5.39372 15 9.94722 15 14.4872C15 15.0835 14.7747 15.3138 14.2049 15.3816ZM12.7871 17.577C12.7871 16.8181 12.7871 16.0999 12.7871 15.3545C12.7208 15.3545 12.6546 15.3545 12.6016 15.3545C9.26237 15.3545 5.90989 15.3545 2.57067 15.3545C2.53092 15.3545 2.47792 15.3545 2.43816 15.3545C1.74912 15.3952 1.27208 16.0321 1.4311 16.7233C1.55035 17.2382 1.98763 17.5635 2.58392 17.5635C5.92315 17.5635 9.26237 17.5635 12.5883 17.5635C12.6546 17.577 12.7208 17.577 12.7871 17.577ZM7.48675 4.75678C8.61307 4.75678 9.75265 4.75678 10.879 4.75678C10.9982 4.75678 11.1307 4.72967 11.25 4.67546C11.5283 4.53994 11.6873 4.21469 11.621 3.91655C11.5415 3.56419 11.2765 3.34736 10.9055 3.34736C8.65283 3.34736 6.40018 3.34736 4.14753 3.34736C3.71025 3.34736 3.39223 3.64551 3.39223 4.05207C3.39223 4.47218 3.697 4.75678 4.16078 4.75678C5.2606 4.75678 6.37367 4.75678 7.48675 4.75678Z" fill="#FF9500"/>
</svg>
